<?xml version="1.0" encoding="UTF-8" standalone="no"?>
<!-- Created with Inkscape (http://www.inkscape.org/) -->

<svg
   xmlns:dc="http://purl.org/dc/elements/1.1/"
   xmlns:cc="http://creativecommons.org/ns#"
   xmlns:rdf="http://www.w3.org/1999/02/22-rdf-syntax-ns#"
   xmlns:svg="http://www.w3.org/2000/svg"
   xmlns="http://www.w3.org/2000/svg"
   xmlns:xlink="http://www.w3.org/1999/xlink"
   xmlns:sodipodi="http://sodipodi.sourceforge.net/DTD/sodipodi-0.dtd"
   xmlns:inkscape="http://www.inkscape.org/namespaces/inkscape"
   width="500"
   height="343.51318"
   id="svg2"
   version="1.1"
   inkscape:version="0.92.4 5da689c313, 2019-01-14"
   sodipodi:docname="banner.svg"
   inkscape:export-filename="fatiando-logo.png"
   inkscape:export-xdpi="436.35999"
   inkscape:export-ydpi="436.35999"
   viewBox="0 0 400.00001 274.81055">
  <sodipodi:namedview
     id="base"
     pagecolor="#02020e"
     bordercolor="#666666"
     borderopacity="1.0"
     inkscape:pageopacity="0"
     inkscape:pageshadow="2"
     inkscape:zoom="1.4142136"
     inkscape:cx="147.90603"
     inkscape:cy="161.965"
     inkscape:document-units="px"
     inkscape:current-layer="layer1"
     showgrid="false"
     inkscape:window-width="1920"
     inkscape:window-height="1080"
     inkscape:window-x="0"
     inkscape:window-y="0"
     inkscape:window-maximized="0"
     showguides="true"
     inkscape:guide-bbox="true"
     fit-margin-top="0"
     fit-margin-left="0"
     fit-margin-right="0"
     fit-margin-bottom="0"
     scale-x="0.1" />
  <defs
     id="defs4"
     style="stroke-linecap:butt;stroke-linejoin:round;stroke-miterlimit:100000">
    <linearGradient
       id="linearGradient4355">
      <stop
         id="stop4363"
         offset="0"
         style="stop-color:#000000;stop-opacity:0.53225809;" />
      <stop
         style="stop-color:#000000;stop-opacity:0;"
         offset="1"
         id="stop4359" />
    </linearGradient>
    <linearGradient
       id="linearGradient7964">
      <stop
         style="stop-color:#000000;stop-opacity:0.69354838;"
         offset="0"
         id="stop7966" />
      <stop
         id="stop7968"
         offset="0.6391145"
         style="stop-color:#212121;stop-opacity:0.26612905;" />
      <stop
         style="stop-color:#000000;stop-opacity:0;"
         offset="1"
         id="stop7970" />
    </linearGradient>
    <linearGradient
       id="linearGradient7952">
      <stop
         id="stop7954"
         offset="0"
         style="stop-color:#ffffff;stop-opacity:0.90322578;" />
      <stop
         style="stop-color:#ffffff;stop-opacity:0.45161289;"
         offset="0.78048778"
         id="stop7956" />
      <stop
         id="stop7958"
         offset="1"
         style="stop-color:#8c8c8c;stop-opacity:0;" />
    </linearGradient>
    <linearGradient
       id="linearGradient7047">
      <stop
         style="stop-color:#162d50;stop-opacity:1;"
         offset="0"
         id="stop7049" />
      <stop
         id="stop7055"
         offset="0.97560978"
         style="stop-color:#162d50;stop-opacity:1;" />
      <stop
         style="stop-color:#162d50;stop-opacity:0;"
         offset="1"
         id="stop7051" />
    </linearGradient>
    <linearGradient
       id="linearGradient6983">
      <stop
         style="stop-color:#131313;stop-opacity:0.31451613;"
         offset="0"
         id="stop6985" />
      <stop
         id="stop7035"
         offset="0.86585367"
         style="stop-color:#070f1a;stop-opacity:0.49803922;" />
      <stop
         style="stop-color:#000000;stop-opacity:0;"
         offset="1"
         id="stop6987" />
    </linearGradient>
    <clipPath
       id="p47e16dad32">
      <rect
         height="558"
         width="558"
         x="90"
         y="72"
         id="rect3287" />
    </clipPath>
    <style
       type="text/css"
       id="style3002">
*{stroke-linecap:butt;stroke-linejoin:round;stroke-miterlimit:100000;}
  </style>
    <clipPath
       clipPathUnits="userSpaceOnUse"
       id="clipPath3492"
       style="stroke-linecap:butt;stroke-linejoin:round;stroke-miterlimit:100000">
      <path
         d="M 900,900 H 6480 V 6480 H 900 Z"
         id="path3494"
         inkscape:connector-curvature="0"
         style="stroke-linecap:butt;stroke-linejoin:round;stroke-miterlimit:100000" />
    </clipPath>
    <clipPath
       id="clipPath4635"
       clipPathUnits="userSpaceOnUse"
       style="stroke-linecap:butt;stroke-linejoin:round;stroke-miterlimit:100000">
      <path
         sodipodi:nodetypes="ccccc"
         inkscape:connector-curvature="0"
         id="path4637"
         d="M -8.7940731,946.36218 50,946.73717 v 111.25003 l -58.7940731,-0.375 z"
         style="fill:none;stroke:#000000;stroke-width:0.10879931;stroke-linecap:butt;stroke-linejoin:round;stroke-miterlimit:100" />
    </clipPath>
    <clipPath
       id="clipPath4730"
       clipPathUnits="userSpaceOnUse"
       style="stroke-linecap:butt;stroke-linejoin:round;stroke-miterlimit:100000">
      <path
         sodipodi:nodetypes="ccccc"
         inkscape:connector-curvature="0"
         id="path4732"
         d="M 63.153185,946.36218 50,946.73717 v 111.25003 l 13.153185,-0.375 z"
         style="fill:none;stroke:#000000;stroke-width:0.05146059;stroke-linecap:butt;stroke-linejoin:round;stroke-miterlimit:100" />
    </clipPath>
    <clipPath
       id="clipPath4767"
       clipPathUnits="userSpaceOnUse"
       style="stroke-linecap:butt;stroke-linejoin:round;stroke-miterlimit:100000">
      <path
         sodipodi:nodetypes="ccccc"
         inkscape:connector-curvature="0"
         id="path4769"
         d="M 76.40318,946.36218 63.25,946.73717 v 111.25003 l 13.15319,-0.375 z"
         style="fill:none;stroke:#000000;stroke-width:0.05146059;stroke-linecap:butt;stroke-linejoin:round;stroke-miterlimit:100" />
    </clipPath>
    <clipPath
       id="clipPath4798"
       clipPathUnits="userSpaceOnUse"
       style="stroke-linecap:butt;stroke-linejoin:round;stroke-miterlimit:100000">
      <path
         sodipodi:nodetypes="ccccc"
         inkscape:connector-curvature="0"
         id="path4800"
         d="M 89.40318,946.36218 76.25,946.73717 v 111.25003 l 13.15319,-0.375 z"
         style="fill:none;stroke:#000000;stroke-width:0.05146059;stroke-linecap:butt;stroke-linejoin:round;stroke-miterlimit:100" />
    </clipPath>
    <clipPath
       id="clipPath4865"
       clipPathUnits="userSpaceOnUse"
       style="stroke-linecap:butt;stroke-linejoin:round;stroke-miterlimit:100000">
      <path
         sodipodi:nodetypes="cccc"
         inkscape:connector-curvature="0"
         id="path4867"
         d="m 107.33231,968.32203 c -4.59619,1.41421 -57.6292,35.35537 -57.6292,35.35537 l 57.98276,41.7193 z"
         style="fill:none;stroke:#000000;stroke-width:1px;stroke-linecap:butt;stroke-linejoin:miter;stroke-miterlimit:100000;stroke-opacity:1" />
    </clipPath>
    <clipPath
       id="clipPath3114"
       clipPathUnits="userSpaceOnUse"
       style="stroke-linecap:butt;stroke-linejoin:round;stroke-miterlimit:100000">
      <rect
         y="937.87701"
         x="0.027363511"
         height="135.24303"
         width="49.8288"
         id="rect3116"
         style="fill:none;stroke:#000000;stroke-width:0.17120032;stroke-linecap:butt;stroke-linejoin:round;stroke-miterlimit:100;stroke-dasharray:none" />
    </clipPath>
    <radialGradient
       inkscape:collect="always"
       xlink:href="#linearGradient6983"
       id="radialGradient6989"
       cx="24.40625"
       cy="46.4375"
       fx="24.40625"
       fy="46.4375"
       r="79.46875"
       gradientTransform="matrix(1,0,0,0.8863547,0,5.2774037)"
       gradientUnits="userSpaceOnUse" />
    <radialGradient
       inkscape:collect="always"
       xlink:href="#linearGradient6983-0"
       id="radialGradient6989-7"
       cx="24.40625"
       cy="46.4375"
       fx="24.40625"
       fy="46.4375"
       r="79.46875"
       gradientTransform="matrix(1,0,0,0.8863547,0,5.2774037)"
       gradientUnits="userSpaceOnUse" />
    <linearGradient
       id="linearGradient6983-0">
      <stop
         style="stop-color:#4e4e4e;stop-opacity:0.31451613;"
         offset="0"
         id="stop6985-5" />
      <stop
         id="stop7035-1"
         offset="0.597561"
         style="stop-color:#0d1c31;stop-opacity:0.63709676;" />
      <stop
         style="stop-color:#000000;stop-opacity:0;"
         offset="1"
         id="stop6987-1" />
    </linearGradient>
    <linearGradient
       id="linearGradient6983-0-3">
      <stop
         style="stop-color:#000000;stop-opacity:0.31451613;"
         offset="0"
         id="stop6985-5-4" />
      <stop
         id="stop7960"
         offset="0.2987805"
         style="stop-color:#000000;stop-opacity:0.65490196;" />
      <stop
         id="stop7035-1-6"
         offset="0.597561"
         style="stop-color:#525252;stop-opacity:1;" />
      <stop
         style="stop-color:#000000;stop-opacity:0;"
         offset="1"
         id="stop6987-1-1" />
    </linearGradient>
    <radialGradient
       inkscape:collect="always"
       xlink:href="#linearGradient6983-0-3-2"
       id="radialGradient6989-7-3-7"
       cx="24.40625"
       cy="46.4375"
       fx="24.40625"
       fy="46.4375"
       r="79.46875"
       gradientTransform="matrix(1,0,0,0.8863547,0,5.2774037)"
       gradientUnits="userSpaceOnUse" />
    <linearGradient
       id="linearGradient6983-0-3-2">
      <stop
         style="stop-color:#4e4e4e;stop-opacity:0.31451613;"
         offset="0"
         id="stop6985-5-4-3" />
      <stop
         id="stop7035-1-6-7"
         offset="0.597561"
         style="stop-color:#0d1c31;stop-opacity:0.63709676;" />
      <stop
         style="stop-color:#000000;stop-opacity:0;"
         offset="1"
         id="stop6987-1-1-2" />
    </linearGradient>
    <radialGradient
       inkscape:collect="always"
       xlink:href="#linearGradient6983-0-3-0"
       id="radialGradient6989-7-3-8"
       cx="24.40625"
       cy="46.4375"
       fx="24.40625"
       fy="46.4375"
       r="79.46875"
       gradientTransform="matrix(1,0,0,0.8863547,0,5.2774037)"
       gradientUnits="userSpaceOnUse" />
    <linearGradient
       id="linearGradient6983-0-3-0">
      <stop
         style="stop-color:#4e4e4e;stop-opacity:0.31451613;"
         offset="0"
         id="stop6985-5-4-2" />
      <stop
         id="stop7035-1-6-4"
         offset="0.597561"
         style="stop-color:#0d1c31;stop-opacity:0.63709676;" />
      <stop
         style="stop-color:#000000;stop-opacity:0;"
         offset="1"
         id="stop6987-1-1-9" />
    </linearGradient>
    <radialGradient
       inkscape:collect="always"
       xlink:href="#linearGradient6983-0-3-1"
       id="radialGradient6989-7-3-80"
       cx="24.40625"
       cy="46.4375"
       fx="24.40625"
       fy="46.4375"
       r="79.46875"
       gradientTransform="matrix(1,0,0,0.8863547,0,5.2774037)"
       gradientUnits="userSpaceOnUse" />
    <linearGradient
       id="linearGradient6983-0-3-1">
      <stop
         style="stop-color:#000000;stop-opacity:0.31451613;"
         offset="0"
         id="stop6985-5-4-7" />
      <stop
         id="stop7035-1-6-9"
         offset="0.597561"
         style="stop-color:#000000;stop-opacity:1;" />
      <stop
         style="stop-color:#000000;stop-opacity:0;"
         offset="1"
         id="stop6987-1-1-1" />
    </linearGradient>
    <radialGradient
       r="79.46875"
       fy="44.948509"
       fx="-97.388268"
       cy="44.948509"
       cx="-97.388268"
       gradientTransform="matrix(0.22679314,-0.14704017,0.87296275,1.0561222,-38.133867,20.650302)"
       gradientUnits="userSpaceOnUse"
       id="radialGradient7923"
       xlink:href="#linearGradient7952"
       inkscape:collect="always" />
    <radialGradient
       inkscape:collect="always"
       xlink:href="#linearGradient7964"
       id="radialGradient7962"
       gradientUnits="userSpaceOnUse"
       gradientTransform="matrix(0.69390209,-0.47055973,0.66121649,0.76480682,50.96095,-20.003874)"
       cx="-164.54355"
       cy="47.635624"
       fx="-164.54355"
       fy="47.635624"
       r="79.46875" />
    <radialGradient
       inkscape:collect="always"
       xlink:href="#linearGradient6983-0-3-3"
       id="radialGradient6989-7-3-4"
       cx="24.40625"
       cy="46.4375"
       fx="24.40625"
       fy="46.4375"
       r="79.46875"
       gradientTransform="matrix(1,0,0,0.8863547,0,5.2774037)"
       gradientUnits="userSpaceOnUse" />
    <linearGradient
       id="linearGradient6983-0-3-3">
      <stop
         style="stop-color:#000000;stop-opacity:0.31451613;"
         offset="0"
         id="stop6985-5-4-72" />
      <stop
         id="stop7960-7"
         offset="0.2987805"
         style="stop-color:#000000;stop-opacity:0.65490196;" />
      <stop
         id="stop7035-1-6-3"
         offset="0.597561"
         style="stop-color:#525252;stop-opacity:1;" />
      <stop
         style="stop-color:#000000;stop-opacity:0;"
         offset="1"
         id="stop6987-1-1-3" />
    </linearGradient>
    <radialGradient
       inkscape:collect="always"
       xlink:href="#linearGradient6983-0-3-7"
       id="radialGradient6989-7-3-2"
       cx="24.40625"
       cy="46.4375"
       fx="24.40625"
       fy="46.4375"
       r="79.46875"
       gradientTransform="matrix(1,0,0,0.8863547,0,5.2774037)"
       gradientUnits="userSpaceOnUse" />
    <linearGradient
       id="linearGradient6983-0-3-7">
      <stop
         style="stop-color:#000000;stop-opacity:0.31451613;"
         offset="0"
         id="stop6985-5-4-29" />
      <stop
         id="stop7960-0"
         offset="0.2987805"
         style="stop-color:#000000;stop-opacity:0.65490196;" />
      <stop
         id="stop7035-1-6-5"
         offset="0.597561"
         style="stop-color:#525252;stop-opacity:1;" />
      <stop
         style="stop-color:#000000;stop-opacity:0;"
         offset="1"
         id="stop6987-1-1-0" />
    </linearGradient>
    <linearGradient
       id="linearGradient6983-0-3-6">
      <stop
         style="stop-color:#000000;stop-opacity:0.31451613;"
         offset="0"
         id="stop6985-5-4-36" />
      <stop
         id="stop7960-8"
         offset="0.2987805"
         style="stop-color:#000000;stop-opacity:0.65490196;" />
      <stop
         id="stop7035-1-6-46"
         offset="0.597561"
         style="stop-color:#525252;stop-opacity:1;" />
      <stop
         style="stop-color:#000000;stop-opacity:0;"
         offset="1"
         id="stop6987-1-1-6" />
    </linearGradient>
    <radialGradient
       inkscape:collect="always"
       xlink:href="#linearGradient6983-0-3-5"
       id="radialGradient6989-7-3-1"
       cx="24.40625"
       cy="46.4375"
       fx="24.40625"
       fy="46.4375"
       r="79.46875"
       gradientTransform="matrix(1,0,0,0.8863547,0,5.2774037)"
       gradientUnits="userSpaceOnUse" />
    <linearGradient
       id="linearGradient6983-0-3-5">
      <stop
         style="stop-color:#000000;stop-opacity:0.31451613;"
         offset="0"
         id="stop6985-5-4-9" />
      <stop
         id="stop7960-9"
         offset="0.2987805"
         style="stop-color:#000000;stop-opacity:0.65490196;" />
      <stop
         id="stop7035-1-6-1"
         offset="0.597561"
         style="stop-color:#525252;stop-opacity:1;" />
      <stop
         style="stop-color:#000000;stop-opacity:0;"
         offset="1"
         id="stop6987-1-1-62" />
    </linearGradient>
    <radialGradient
       inkscape:collect="always"
       xlink:href="#linearGradient6983-0-3-5-5"
       id="radialGradient6989-7-3-1-8"
       cx="24.40625"
       cy="46.4375"
       fx="24.40625"
       fy="46.4375"
       r="79.46875"
       gradientTransform="matrix(1,0,0,0.8863547,0,5.2774037)"
       gradientUnits="userSpaceOnUse" />
    <linearGradient
       id="linearGradient6983-0-3-5-5">
      <stop
         style="stop-color:#000000;stop-opacity:0.31451613;"
         offset="0"
         id="stop6985-5-4-9-1" />
      <stop
         id="stop7960-9-2"
         offset="0.2987805"
         style="stop-color:#000000;stop-opacity:0.65490196;" />
      <stop
         id="stop7035-1-6-1-9"
         offset="0.597561"
         style="stop-color:#525252;stop-opacity:1;" />
      <stop
         style="stop-color:#000000;stop-opacity:0;"
         offset="1"
         id="stop6987-1-1-62-7" />
    </linearGradient>
    <linearGradient
       id="linearGradient6983-0-3-0-4">
      <stop
         style="stop-color:#4e4e4e;stop-opacity:0.31451613;"
         offset="0"
         id="stop6985-5-4-2-6" />
      <stop
         id="stop7035-1-6-4-0"
         offset="0.597561"
         style="stop-color:#0d1c31;stop-opacity:0.63709676;" />
      <stop
         style="stop-color:#000000;stop-opacity:0;"
         offset="1"
         id="stop6987-1-1-9-7" />
    </linearGradient>
    <radialGradient
       inkscape:collect="always"
       xlink:href="#linearGradient6983-0-3-5-5-3"
       id="radialGradient6989-7-3-1-8-4"
       cx="24.40625"
       cy="46.4375"
       fx="24.40625"
       fy="46.4375"
       r="79.46875"
       gradientTransform="matrix(1,0,0,0.8863547,0,5.2774037)"
       gradientUnits="userSpaceOnUse" />
    <linearGradient
       id="linearGradient6983-0-3-5-5-3">
      <stop
         style="stop-color:#000000;stop-opacity:0.31451613;"
         offset="0"
         id="stop6985-5-4-9-1-7" />
      <stop
         id="stop7960-9-2-9"
         offset="0.2987805"
         style="stop-color:#000000;stop-opacity:0.65490196;" />
      <stop
         id="stop7035-1-6-1-9-0"
         offset="0.597561"
         style="stop-color:#525252;stop-opacity:1;" />
      <stop
         style="stop-color:#000000;stop-opacity:0;"
         offset="1"
         id="stop6987-1-1-62-7-0" />
    </linearGradient>
    <radialGradient
       inkscape:collect="always"
       xlink:href="#linearGradient6983-0-3-5-2"
       id="radialGradient6989-7-3-1-2"
       cx="24.40625"
       cy="46.4375"
       fx="24.40625"
       fy="46.4375"
       r="79.46875"
       gradientTransform="matrix(1,0,0,0.8863547,0,5.2774037)"
       gradientUnits="userSpaceOnUse" />
    <linearGradient
       id="linearGradient6983-0-3-5-2">
      <stop
         style="stop-color:#000000;stop-opacity:0.31451613;"
         offset="0"
         id="stop6985-5-4-9-6" />
      <stop
         id="stop7960-9-9"
         offset="0.2987805"
         style="stop-color:#000000;stop-opacity:0.65490196;" />
      <stop
         id="stop7035-1-6-1-0"
         offset="0.597561"
         style="stop-color:#525252;stop-opacity:1;" />
      <stop
         style="stop-color:#000000;stop-opacity:0;"
         offset="1"
         id="stop6987-1-1-62-3" />
    </linearGradient>
    <radialGradient
       inkscape:collect="always"
       xlink:href="#linearGradient6983-0-3-7-5"
       id="radialGradient6989-7-3-2-5"
       cx="24.40625"
       cy="46.4375"
       fx="24.40625"
       fy="46.4375"
       r="79.46875"
       gradientTransform="matrix(1,0,0,0.8863547,0,5.2774037)"
       gradientUnits="userSpaceOnUse" />
    <linearGradient
       id="linearGradient6983-0-3-7-5">
      <stop
         style="stop-color:#000000;stop-opacity:0.31451613;"
         offset="0"
         id="stop6985-5-4-29-8" />
      <stop
         id="stop7960-0-7"
         offset="0.2987805"
         style="stop-color:#000000;stop-opacity:0.65490196;" />
      <stop
         id="stop7035-1-6-5-1"
         offset="0.597561"
         style="stop-color:#525252;stop-opacity:1;" />
      <stop
         style="stop-color:#000000;stop-opacity:0;"
         offset="1"
         id="stop6987-1-1-0-7" />
    </linearGradient>
    <radialGradient
       inkscape:collect="always"
       xlink:href="#linearGradient6983-0-3-5-5-3-1"
       id="radialGradient6989-7-3-1-8-4-0"
       cx="24.40625"
       cy="46.4375"
       fx="24.40625"
       fy="46.4375"
       r="79.46875"
       gradientTransform="matrix(1,0,0,0.8863547,0,5.2774037)"
       gradientUnits="userSpaceOnUse" />
    <linearGradient
       id="linearGradient6983-0-3-5-5-3-1">
      <stop
         style="stop-color:#000000;stop-opacity:0.31451613;"
         offset="0"
         id="stop6985-5-4-9-1-7-4" />
      <stop
         id="stop7960-9-2-9-5"
         offset="0.2987805"
         style="stop-color:#000000;stop-opacity:0.65490196;" />
      <stop
         id="stop7035-1-6-1-9-0-7"
         offset="0.597561"
         style="stop-color:#525252;stop-opacity:1;" />
      <stop
         style="stop-color:#000000;stop-opacity:0;"
         offset="1"
         id="stop6987-1-1-62-7-0-0" />
    </linearGradient>
    <radialGradient
       inkscape:collect="always"
       xlink:href="#linearGradient6983-0-3-5-5-9"
       id="radialGradient6989-7-3-1-8-8"
       cx="24.40625"
       cy="46.4375"
       fx="24.40625"
       fy="46.4375"
       r="79.46875"
       gradientTransform="matrix(1,0,0,0.8863547,0,5.2774037)"
       gradientUnits="userSpaceOnUse" />
    <linearGradient
       id="linearGradient6983-0-3-5-5-9">
      <stop
         style="stop-color:#000000;stop-opacity:0.31451613;"
         offset="0"
         id="stop6985-5-4-9-1-9" />
      <stop
         id="stop7960-9-2-3"
         offset="0.2987805"
         style="stop-color:#000000;stop-opacity:0.65490196;" />
      <stop
         id="stop7035-1-6-1-9-9"
         offset="0.597561"
         style="stop-color:#525252;stop-opacity:1;" />
      <stop
         style="stop-color:#000000;stop-opacity:0;"
         offset="1"
         id="stop6987-1-1-62-7-4" />
    </linearGradient>
    <radialGradient
       r="79.46875"
       fy="46.4375"
       fx="24.40625"
       cy="46.4375"
       cx="24.40625"
       gradientTransform="matrix(1,0,0,0.8863547,0,5.2774037)"
       gradientUnits="userSpaceOnUse"
       id="radialGradient9268"
       xlink:href="#linearGradient6983-0-3-5-5-9"
       inkscape:collect="always" />
    <linearGradient
       id="linearGradient6983-0-3-5-5-9-5">
      <stop
         style="stop-color:#000000;stop-opacity:0.31451613;"
         offset="0"
         id="stop6985-5-4-9-1-9-5" />
      <stop
         id="stop7960-9-2-3-5"
         offset="0.2987805"
         style="stop-color:#000000;stop-opacity:0.65490196;" />
      <stop
         id="stop7035-1-6-1-9-9-6"
         offset="0.597561"
         style="stop-color:#525252;stop-opacity:1;" />
      <stop
         style="stop-color:#000000;stop-opacity:0;"
         offset="1"
         id="stop6987-1-1-62-7-4-0" />
    </linearGradient>
    <radialGradient
       inkscape:collect="always"
       xlink:href="#linearGradient6983-0-3-5-5-9-5"
       id="radialGradient9394"
       gradientUnits="userSpaceOnUse"
       gradientTransform="matrix(1,0,0,0.8863547,0,5.2774037)"
       cx="24.40625"
       cy="46.4375"
       fx="24.40625"
       fy="46.4375"
       r="79.46875" />
    <radialGradient
       inkscape:collect="always"
       xlink:href="#linearGradient6983-0-3-5-2-3"
       id="radialGradient6989-7-3-1-2-9"
       cx="24.40625"
       cy="46.4375"
       fx="24.40625"
       fy="46.4375"
       r="79.46875"
       gradientTransform="matrix(1,0,0,0.8863547,0,5.2774037)"
       gradientUnits="userSpaceOnUse" />
    <linearGradient
       id="linearGradient6983-0-3-5-2-3">
      <stop
         style="stop-color:#000000;stop-opacity:0.31451613;"
         offset="0"
         id="stop6985-5-4-9-6-0" />
      <stop
         id="stop7960-9-9-8"
         offset="0.2987805"
         style="stop-color:#000000;stop-opacity:0.65490196;" />
      <stop
         id="stop7035-1-6-1-0-7"
         offset="0.597561"
         style="stop-color:#525252;stop-opacity:1;" />
      <stop
         style="stop-color:#000000;stop-opacity:0;"
         offset="1"
         id="stop6987-1-1-62-3-6" />
    </linearGradient>
    <radialGradient
       inkscape:collect="always"
       xlink:href="#linearGradient6983-0-3-0-0"
       id="radialGradient6989-7-3-8-7"
       cx="24.40625"
       cy="46.4375"
       fx="24.40625"
       fy="46.4375"
       r="79.46875"
       gradientTransform="matrix(1,0,0,0.8863547,0,5.2774037)"
       gradientUnits="userSpaceOnUse" />
    <linearGradient
       id="linearGradient6983-0-3-0-0">
      <stop
         style="stop-color:#4e4e4e;stop-opacity:0.31451613;"
         offset="0"
         id="stop6985-5-4-2-4" />
      <stop
         id="stop7035-1-6-4-9"
         offset="0.597561"
         style="stop-color:#0d1c31;stop-opacity:0.63709676;" />
      <stop
         style="stop-color:#000000;stop-opacity:0;"
         offset="1"
         id="stop6987-1-1-9-6" />
    </linearGradient>
    <radialGradient
       inkscape:collect="always"
       xlink:href="#linearGradient4355-7"
       id="radialGradient4361-9"
       cx="-3.5932889"
       cy="1028.7412"
       fx="-3.5932889"
       fy="1028.7412"
       r="49.875"
       gradientTransform="matrix(0.9711094,-0.78408146,1.5936614,1.9754072,-1629.6492,-996.9733)"
       gradientUnits="userSpaceOnUse" />
    <linearGradient
       id="linearGradient4355-7">
      <stop
         id="stop4363-1"
         offset="0"
         style="stop-color:#000000;stop-opacity:0.53225809;" />
      <stop
         style="stop-color:#000000;stop-opacity:0;"
         offset="1"
         id="stop4359-3" />
    </linearGradient>
    <radialGradient
       r="49.875"
       fy="1028.7412"
       fx="-3.5932889"
       cy="1028.7412"
       cx="-3.5932889"
       gradientTransform="matrix(0.9711094,-0.78408146,1.5936614,1.9754072,-1629.6492,-996.9733)"
       gradientUnits="userSpaceOnUse"
       id="radialGradient4380"
       xlink:href="#linearGradient4355-7"
       inkscape:collect="always" />
    <radialGradient
       inkscape:collect="always"
       xlink:href="#linearGradient6983-0-3-5-5-3-5"
       id="radialGradient6989-7-3-1-8-4-7"
       cx="24.40625"
       cy="46.4375"
       fx="24.40625"
       fy="46.4375"
       r="79.46875"
       gradientTransform="matrix(1,0,0,0.8863547,0,5.2774037)"
       gradientUnits="userSpaceOnUse" />
    <linearGradient
       id="linearGradient6983-0-3-5-5-3-5">
      <stop
         style="stop-color:#000000;stop-opacity:0.31451613;"
         offset="0"
         id="stop6985-5-4-9-1-7-9" />
      <stop
         id="stop7960-9-2-9-2"
         offset="0.2987805"
         style="stop-color:#000000;stop-opacity:0.65490196;" />
      <stop
         id="stop7035-1-6-1-9-0-2"
         offset="0.597561"
         style="stop-color:#525252;stop-opacity:1;" />
      <stop
         style="stop-color:#000000;stop-opacity:0;"
         offset="1"
         id="stop6987-1-1-62-7-0-8" />
    </linearGradient>
    <radialGradient
       r="79.46875"
       fy="46.4375"
       fx="24.40625"
       cy="46.4375"
       cx="24.40625"
       gradientTransform="matrix(1,0,0,0.8863547,0,5.2774037)"
       gradientUnits="userSpaceOnUse"
       id="radialGradient3561"
       xlink:href="#linearGradient6983-0-3-5-5-3-5"
       inkscape:collect="always" />
    <radialGradient
       r="79.46875"
       fy="46.4375"
       fx="24.40625"
       cy="46.4375"
       cx="24.40625"
       gradientTransform="matrix(1,0,0,0.8863547,0,5.2774037)"
       gradientUnits="userSpaceOnUse"
       id="radialGradient3561-3"
       xlink:href="#linearGradient6983-0-3-5-5-3-5-6"
       inkscape:collect="always" />
    <linearGradient
       id="linearGradient6983-0-3-5-5-3-5-6">
      <stop
         style="stop-color:#000000;stop-opacity:0.31451613;"
         offset="0"
         id="stop6985-5-4-9-1-7-9-1" />
      <stop
         id="stop7960-9-2-9-2-0"
         offset="0.2987805"
         style="stop-color:#000000;stop-opacity:0.65490196;" />
      <stop
         id="stop7035-1-6-1-9-0-2-6"
         offset="0.597561"
         style="stop-color:#525252;stop-opacity:1;" />
      <stop
         style="stop-color:#000000;stop-opacity:0;"
         offset="1"
         id="stop6987-1-1-62-7-0-8-3" />
    </linearGradient>
    <radialGradient
       r="79.46875"
       fy="46.4375"
       fx="24.40625"
       cy="46.4375"
       cx="24.40625"
       gradientTransform="matrix(1,0,0,0.8863547,0,5.2774037)"
       gradientUnits="userSpaceOnUse"
       id="radialGradient3561-1"
       xlink:href="#linearGradient6983-0-3-5-5-3-5-2"
       inkscape:collect="always" />
    <linearGradient
       id="linearGradient6983-0-3-5-5-3-5-2">
      <stop
         style="stop-color:#000000;stop-opacity:0.31451613;"
         offset="0"
         id="stop6985-5-4-9-1-7-9-9" />
      <stop
         id="stop7960-9-2-9-2-3"
         offset="0.2987805"
         style="stop-color:#000000;stop-opacity:0.65490196;" />
      <stop
         id="stop7035-1-6-1-9-0-2-1"
         offset="0.597561"
         style="stop-color:#525252;stop-opacity:1;" />
      <stop
         style="stop-color:#000000;stop-opacity:0;"
         offset="1"
         id="stop6987-1-1-62-7-0-8-9" />
    </linearGradient>
    <radialGradient
       r="79.46875"
       fy="46.4375"
       fx="24.40625"
       cy="46.4375"
       cx="24.40625"
       gradientTransform="matrix(1,0,0,0.8863547,0,5.2774037)"
       gradientUnits="userSpaceOnUse"
       id="radialGradient3561-1-2"
       xlink:href="#linearGradient6983-0-3-5-5-3-5-2-7"
       inkscape:collect="always" />
    <linearGradient
       id="linearGradient6983-0-3-5-5-3-5-2-7">
      <stop
         style="stop-color:#000000;stop-opacity:0.31451613;"
         offset="0"
         id="stop6985-5-4-9-1-7-9-9-2" />
      <stop
         id="stop7960-9-2-9-2-3-2"
         offset="0.2987805"
         style="stop-color:#000000;stop-opacity:0.65490196;" />
      <stop
         id="stop7035-1-6-1-9-0-2-1-6"
         offset="0.597561"
         style="stop-color:#525252;stop-opacity:1;" />
      <stop
         style="stop-color:#000000;stop-opacity:0;"
         offset="1"
         id="stop6987-1-1-62-7-0-8-9-1" />
    </linearGradient>
    <radialGradient
       r="79.46875"
       fy="46.4375"
       fx="24.40625"
       cy="46.4375"
       cx="24.40625"
       gradientTransform="matrix(1,0,0,0.8863547,0,5.2774037)"
       gradientUnits="userSpaceOnUse"
       id="radialGradient3561-1-1"
       xlink:href="#linearGradient6983-0-3-5-5-3-5-2-0"
       inkscape:collect="always" />
    <linearGradient
       id="linearGradient6983-0-3-5-5-3-5-2-0">
      <stop
         style="stop-color:#000000;stop-opacity:0.31451613;"
         offset="0"
         id="stop6985-5-4-9-1-7-9-9-3" />
      <stop
         id="stop7960-9-2-9-2-3-0"
         offset="0.2987805"
         style="stop-color:#000000;stop-opacity:0.65490196;" />
      <stop
         id="stop7035-1-6-1-9-0-2-1-4"
         offset="0.597561"
         style="stop-color:#525252;stop-opacity:1;" />
      <stop
         style="stop-color:#000000;stop-opacity:0;"
         offset="1"
         id="stop6987-1-1-62-7-0-8-9-4" />
    </linearGradient>
    <radialGradient
       r="79.46875"
       fy="46.4375"
       fx="24.40625"
       cy="46.4375"
       cx="24.40625"
       gradientTransform="matrix(1,0,0,0.8863547,0,5.2774037)"
       gradientUnits="userSpaceOnUse"
       id="radialGradient3561-1-1-5"
       xlink:href="#linearGradient6983-0-3-5-5-3-5-2-0-4"
       inkscape:collect="always" />
    <linearGradient
       id="linearGradient6983-0-3-5-5-3-5-2-0-4">
      <stop
         style="stop-color:#000000;stop-opacity:0.31451613;"
         offset="0"
         id="stop6985-5-4-9-1-7-9-9-3-0" />
      <stop
         id="stop7960-9-2-9-2-3-0-5"
         offset="0.2987805"
         style="stop-color:#000000;stop-opacity:0.65490196;" />
      <stop
         id="stop7035-1-6-1-9-0-2-1-4-9"
         offset="0.597561"
         style="stop-color:#525252;stop-opacity:1;" />
      <stop
         style="stop-color:#000000;stop-opacity:0;"
         offset="1"
         id="stop6987-1-1-62-7-0-8-9-4-4" />
    </linearGradient>
    <linearGradient
       id="linearGradient6983-0-3-5-5-3-5-2-0-4-1">
      <stop
         style="stop-color:#000000;stop-opacity:0.31451613;"
         offset="0"
         id="stop6985-5-4-9-1-7-9-9-3-0-0" />
      <stop
         id="stop7960-9-2-9-2-3-0-5-3"
         offset="0.2987805"
         style="stop-color:#000000;stop-opacity:0.65490196;" />
      <stop
         id="stop7035-1-6-1-9-0-2-1-4-9-4"
         offset="0.597561"
         style="stop-color:#525252;stop-opacity:1;" />
      <stop
         style="stop-color:#000000;stop-opacity:0;"
         offset="1"
         id="stop6987-1-1-62-7-0-8-9-4-4-0" />
    </linearGradient>
    <linearGradient
       id="linearGradient6983-0-3-5-5-3-5-2-0-9">
      <stop
         style="stop-color:#000000;stop-opacity:0.31451613;"
         offset="0"
         id="stop6985-5-4-9-1-7-9-9-3-1" />
      <stop
         id="stop7960-9-2-9-2-3-0-9"
         offset="0.2987805"
         style="stop-color:#000000;stop-opacity:0.65490196;" />
      <stop
         id="stop7035-1-6-1-9-0-2-1-4-6"
         offset="0.597561"
         style="stop-color:#525252;stop-opacity:1;" />
      <stop
         style="stop-color:#000000;stop-opacity:0;"
         offset="1"
         id="stop6987-1-1-62-7-0-8-9-4-9" />
    </linearGradient>
    <radialGradient
       r="79.46875"
       fy="46.4375"
       fx="24.40625"
       cy="46.4375"
       cx="24.40625"
       gradientTransform="matrix(1,0,0,0.8863547,0,5.2774037)"
       gradientUnits="userSpaceOnUse"
       id="radialGradient3561-1-2-3"
       xlink:href="#linearGradient6983-0-3-5-5-3-5-2-7-3"
       inkscape:collect="always" />
    <linearGradient
       id="linearGradient6983-0-3-5-5-3-5-2-7-3">
      <stop
         style="stop-color:#000000;stop-opacity:0.31451613;"
         offset="0"
         id="stop6985-5-4-9-1-7-9-9-2-8" />
      <stop
         id="stop7960-9-2-9-2-3-2-0"
         offset="0.2987805"
         style="stop-color:#000000;stop-opacity:0.65490196;" />
      <stop
         id="stop7035-1-6-1-9-0-2-1-6-5"
         offset="0.597561"
         style="stop-color:#525252;stop-opacity:1;" />
      <stop
         style="stop-color:#000000;stop-opacity:0;"
         offset="1"
         id="stop6987-1-1-62-7-0-8-9-1-6" />
    </linearGradient>
    <radialGradient
       r="79.46875"
       fy="46.4375"
       fx="24.40625"
       cy="46.4375"
       cx="24.40625"
       gradientTransform="matrix(1,0,0,0.8863547,0,5.2774037)"
       gradientUnits="userSpaceOnUse"
       id="radialGradient3561-1-6"
       xlink:href="#linearGradient6983-0-3-5-5-3-5-2-4"
       inkscape:collect="always" />
    <linearGradient
       id="linearGradient6983-0-3-5-5-3-5-2-4">
      <stop
         style="stop-color:#000000;stop-opacity:0.31451613;"
         offset="0"
         id="stop6985-5-4-9-1-7-9-9-0" />
      <stop
         id="stop7960-9-2-9-2-3-04"
         offset="0.2987805"
         style="stop-color:#000000;stop-opacity:0.65490196;" />
      <stop
         id="stop7035-1-6-1-9-0-2-1-62"
         offset="0.597561"
         style="stop-color:#525252;stop-opacity:1;" />
      <stop
         style="stop-color:#000000;stop-opacity:0;"
         offset="1"
         id="stop6987-1-1-62-7-0-8-9-6" />
    </linearGradient>
    <radialGradient
       inkscape:collect="always"
       xlink:href="#linearGradient6983-0-3-5-5-3-5-2-0-9"
       id="radialGradient5944"
       gradientUnits="userSpaceOnUse"
       gradientTransform="matrix(1,0,0,0.8863547,0,5.2774037)"
       cx="24.40625"
       cy="46.4375"
       fx="24.40625"
       fy="46.4375"
       r="79.46875" />
    <radialGradient
       inkscape:collect="always"
       xlink:href="#linearGradient6983-0-3-5-5-3-5-2-0-4-1"
       id="radialGradient5965"
       gradientUnits="userSpaceOnUse"
       gradientTransform="matrix(1,0,0,0.8863547,0,5.2774037)"
       cx="24.40625"
       cy="46.4375"
       fx="24.40625"
       fy="46.4375"
       r="79.46875" />
  </defs>
  <metadata
     id="metadata7">
    <rdf:RDF>
      <cc:Work
         rdf:about="">
        <dc:format>image/svg+xml</dc:format>
        <dc:type
           rdf:resource="http://purl.org/dc/dcmitype/StillImage" />
        <dc:title></dc:title>
      </cc:Work>
    </rdf:RDF>
  </metadata>
  <g
     transform="translate(36.929495,-687.99928)"
     id="layer1"
     inkscape:groupmode="layer"
     inkscape:label="Layer 1"
     style="stroke-linecap:butt;stroke-linejoin:round;stroke-miterlimit:100000">
    <g
       id="g1072"
       transform="matrix(1.4184735,0,0,1.4184735,99.248447,-649.41876)"
       style="stroke-linecap:butt;stroke-linejoin:round;stroke-miterlimit:100000">
      <path
         inkscape:export-ydpi="450"
         inkscape:export-xdpi="450"
         inkscape:export-filename="/home/leo/src/fatiando/logo/fatiando-logo-white.png"
         style="fill:#2060c2;fill-opacity:1;fill-rule:nonzero;stroke:none;stroke-width:1.31166041;stroke-linecap:butt;stroke-linejoin:round;stroke-miterlimit:100000"
         d="m 44.993482,962.5628 c -11.93022,0 -23.357718,4.76484 -31.793638,13.19736 -8.4359192,8.43241 -13.19735928,19.86822 -13.19735928,31.79364 0,11.9254 4.76146108,23.3614 13.19735928,31.7936 8.43592,8.4326 19.863418,13.1973 31.793638,13.1973 11.930212,0 23.357735,-4.7647 31.793641,-13.1973 8.435894,-8.4322 13.197356,-19.8682 13.197356,-31.7936 H 44.993482 Z"
         id="path3090-9-2"
         inkscape:connector-curvature="0" />
      <path
         inkscape:connector-curvature="0"
         transform="translate(-10,952.36218)"
         id="path4363-5-1-04-7"
         d="m 54.994141,10.214844 v 44.976562 h 44.980468 c 2e-6,-0.0046 0,-0.0091 0,-0.01367 0,-11.925412 -4.745713,-23.354688 -13.18164,-31.787109 C 78.357059,14.958113 66.924354,10.214844 54.994141,10.214844 Z m -19.216797,4.314453 c -4.628863,2.188536 -8.89327,5.172104 -12.583985,8.861328 -5.008085,5.006009 -8.70286,11.072829 -10.888671,17.667969 2.19114,-6.592518 5.889411,-12.657118 10.894531,-17.660156 3.689666,-3.68818 7.952135,-6.675996 12.578125,-8.869141 z m 59.550781,60.53125 c -2.160348,4.373612 -5.026689,8.41104 -8.541016,11.923828 -3.68966,3.688214 -7.952132,6.676015 -12.578125,8.869141 4.628864,-2.188531 8.893274,-5.172109 12.583985,-8.861328 3.513979,-3.512566 6.37829,-7.554182 8.535156,-11.931641 z m -80.011719,1.304687 c 2.069743,3.878082 4.713494,7.464765 7.876953,10.626954 3.690715,3.689219 7.955122,6.672797 12.583985,8.861328 C 31.151354,93.66039 26.888885,90.672589 23.199219,86.984375 20.035757,83.8223 17.389109,80.239533 15.316406,76.365234 Z"
         style="fill:#6f4b4b;fill-opacity:1;fill-rule:nonzero;stroke:#6f4b4b;stroke-width:0.02;stroke-linecap:butt;stroke-linejoin:miter;stroke-miterlimit:100;stroke-dasharray:none;stroke-opacity:1" />
      <path
         inkscape:connector-curvature="0"
         id="path3264-0-2-5-2"
         transform="translate(-10,952.36218)"
         d="m 54.994141,13.722656 v 41.46875 h 41.527343 c 2e-6,-0.0046 0,-0.0091 0,-0.01367 0,-10.987991 -4.404402,-21.511931 -12.191406,-29.285156 C 76.543083,18.119264 66.001479,13.722656 54.994141,13.722656 Z"
         style="fill:#d56969;fill-opacity:1;fill-rule:nonzero;stroke:#d56969;stroke-width:0.02;stroke-linecap:butt;stroke-linejoin:miter;stroke-miterlimit:100;stroke-dasharray:none;stroke-opacity:1" />
      <path
         inkscape:connector-curvature="0"
         id="path4220-3-7-42-2"
         transform="translate(-10,952.36218)"
         d="m 54.994141,30.361328 v 24.830078 h 24.859375 c 2e-6,-0.0046 0,-0.0091 0,-0.01367 0,-6.573876 -2.59799,-12.871901 -7.28125,-17.546875 C 67.888961,32.955787 61.57959,30.361328 54.994141,30.361328 Z"
         style="fill:#ffd52e;fill-opacity:1;fill-rule:nonzero;stroke:#ffd52e;stroke-width:0.02;stroke-linecap:butt;stroke-linejoin:miter;stroke-miterlimit:100;stroke-dasharray:none;stroke-opacity:1" />
      <path
         inkscape:connector-curvature="0"
         id="path3234-5-6-0-4-9"
         transform="translate(-10,952.36218)"
         d="m 54.994141,42.90625 v 12.285156 h 12.291015 c 5e-6,-0.0046 0,-0.0091 0,-0.01367 0,-3.220552 -1.271689,-6.307091 -3.623047,-8.654296 -2.351442,-2.347307 -5.441749,-3.61719 -8.667968,-3.61719 z"
         style="fill:#ffeeaa;fill-opacity:1;fill-rule:nonzero;stroke:#ffeeaa;stroke-width:0.02;stroke-linecap:butt;stroke-linejoin:miter;stroke-miterlimit:100;stroke-dasharray:none;stroke-opacity:1" />
      <path
         inkscape:connector-curvature="0"
         id="path3085-9-8"
         transform="translate(-10,952.36218)"
         d="m 46.224609,89.578125 c -0.191717,-0.07242 -0.383321,0.09932 -0.603515,0.667969 -0.206995,0.7676 1.24616,2.7062 0.599609,3.75 -0.646489,1.0436 -2.846495,0.20449 -3.449219,1.08789 -0.4441,0.650862 -0.757994,2.119873 -0.492187,3.248047 4.092043,1.211427 8.369095,1.849609 12.714844,1.849609 6.026939,0 11.923581,-1.219177 17.373047,-3.509765 -0.0419,-4.357031 -6.42511,-2.71726 -9.613282,-2.525391 -3.934168,0.1776 -7.692529,1.8062 -11.771484,0.75 -1.111181,-0.3299 -1.239486,-0.608918 -1.875,-1.199218 -0.635479,-0.5897 -1.325295,-1.698091 -1.800781,-2.400391 -0.445217,-0.795313 -0.762503,-1.598052 -1.082032,-1.71875 z"
         style="fill:#fafafa;fill-opacity:1;stroke:#ffffff;stroke-width:0.05;stroke-linecap:butt;stroke-linejoin:round;stroke-miterlimit:100;stroke-dasharray:none;stroke-opacity:1" />
      <path
         sodipodi:nodetypes="cczzzc"
         inkscape:export-ydpi="450"
         inkscape:export-xdpi="450"
         inkscape:export-filename="/home/leo/src/fatiando/logo/fatiando-logo-white.png"
         style="fill:#fafafa;fill-opacity:1;stroke-width:1.31166041;stroke-linecap:butt;stroke-linejoin:round;stroke-miterlimit:100000"
         d="m 39.669552,964.62486 c -1.259715,0.82652 -2.688064,1.40569 -3.749253,2.47453 -0.929093,0.93571 -3.108173,1.93358 -2.174563,3.33682 0.93361,1.40324 5.487984,3.43156 7.011097,2.0621 1.523113,-1.36946 4.465754,-6.6754 3.253694,-8.38767 -1.21206,-1.71226 -2.740734,-0.78324 -4.340975,0.51422 z"
         id="path4574-9-8-6-7-3-3-9-1"
         inkscape:connector-curvature="0" />
      <path
         sodipodi:nodetypes="cccccccccccccccccccccccccccccccccccccccccccccccccccccc"
         inkscape:export-ydpi="450"
         inkscape:export-xdpi="450"
         inkscape:export-filename="/home/leo/src/fatiando/logo/fatiando-logo-white.png"
         style="fill:#6abb33;fill-opacity:1;stroke:#000000;stroke-width:0;stroke-linecap:butt;stroke-linejoin:miter;stroke-miterlimit:100;stroke-dasharray:none;stroke-opacity:1"
         d="m 31.308722,964.88734 c -1.381029,0.0946 -2.94113,0.77042 -4.462758,1.49529 -2.18183,0.97621 -4.349462,2.14607 -6.212103,3.34271 -1.988104,1.27581 -3.583874,2.51583 -5.673861,4.34965 -1.746334,1.53225 -3.337718,3.23375 -4.810087,5.02869 -1.3536071,1.65022 -2.8983574,3.77406 -3.7737044,5.39223 -0.8753458,1.618 -1.7595571,2.80784 -1.6496675,4.34913 0.052086,0.73045 0.4114194,1.58573 1.0497888,1.9496 0.6786544,0.38689 1.6382362,-0.4073 2.3620275,-0.11228 1.3761967,0.56049 1.7080848,2.64031 3.0743826,3.22434 0.945533,-0.0917 1.84077,0.17758 2.511997,0.48741 0.713094,1.26113 -0.587257,2.84637 -0.824833,4.27414 -0.311482,1.87165 -1.206383,3.77285 -0.787343,5.62395 0.611422,2.7005 2.573401,4.9758 4.574087,6.8985 0.705049,0.6773 1.939962,0.7824 2.511997,1.5746 1.19454,1.6542 0.97417,3.9284 1.387221,5.924 0.575131,2.7781 0.774276,5.6274 1.537192,8.3607 0.632586,2.266 1.164608,4.6785 2.474505,6.6363 0.739906,1.1056 1.787559,2.0408 2.924416,2.7368 1.220036,0.7468 3.219495,2.5868 4.04919,1.4246 0.843673,-1.1821 -2.121571,-2.0603 -2.736954,-3.3744 -0.83532,-1.7835 -1.539375,-3.8866 -1.124775,-5.8112 0.470463,-2.1836 2.6884,-3.5701 3.861729,-5.4738 1.116123,-1.8108 2.035225,-3.7288 2.9994,-5.6241 0.446598,-0.8778 0.635706,-1.9067 1.312238,-2.6243 0.974709,-1.0337 2.849212,-0.9715 3.711757,-2.0997 1.413402,-1.8484 0.675504,-4.6549 1.687163,-6.7485 0.558513,-1.1558 1.999591,-1.8332 2.324534,-3.0743 0.288385,-1.1017 0.21153,-2.4834 -0.449909,-3.41195 -0.913473,-1.28241 -2.755683,-1.59158 -4.236654,-2.13695 -1.998728,-0.73616 -4.46895,-0.25823 -6.223754,-1.46223 -2.129359,-3.69336 -5.475848,-5.38945 -9.523096,-6.14877 -2.041079,-0.37374 -4.323693,-0.71836 -6.223753,0.11227 -1.186933,0.51912 -1.367811,2.73642 -2.661969,2.81193 -0.704138,0.0411 -2.009801,0.52533 -2.84943,0.26246 -1.15802,-0.36265 0.89538,-2.68263 0.149969,-3.63679 -0.490065,-0.62708 -1.9799384,0.22945 -2.3245339,-0.48738 -0.5100168,-1.06069 2.0262999,-2.01057 1.6121779,-3.11188 -0.152658,-0.40596 -0.777684,-0.63131 -1.1997591,-0.52489 -1.2243431,0.30834 -1.3136659,3.46152 -2.4370125,2.88692 -1.2384278,-0.63338 0.365603,-2.80439 1.04979,-4.0117 0.7585831,-1.33863 1.9928006,-2.42427 3.2618466,-3.29934 0.992046,-0.68406 2.224283,-1.97044 3.299341,-1.42474 0.565099,0.28694 -0.252037,1.74118 0.374926,1.83714 0.429502,0.0658 0.464799,-0.74602 0.674863,-1.12476 0.44294,-0.79869 0.715922,-1.70692 1.312239,-2.39953 0.789237,-0.91681 1.982531,-1.37003 2.88692,-2.17456 1.700169,-1.61081 3.003663,-3.55292 4.949014,-4.61158 1.760688,-0.46775 3.809118,-1.35646 4.724052,-2.06208 -0.0122,-0.45596 -1.248158,-0.22123 -1.19976,-0.67488 0.207246,-1.94245 5.26258,0.33796 5.661369,-1.57469 0.198488,-0.95195 -0.950716,-1.55413 -1.912118,-1.72462 -0.312573,-0.0557 -0.658259,-0.062 -1.012297,-0.0374 z"
         id="path3076-9-4"
         inkscape:connector-curvature="0" />
      <path
         sodipodi:nodetypes="ccccccccc"
         inkscape:export-ydpi="450"
         inkscape:export-xdpi="450"
         inkscape:export-filename="/home/leo/src/fatiando/logo/fatiando-logo-white.png"
         style="fill:#6abb33;fill-opacity:1;stroke:#000000;stroke-width:0;stroke-linecap:butt;stroke-linejoin:miter;stroke-miterlimit:100;stroke-dasharray:none;stroke-opacity:1"
         d="m 76.899601,1007.5538 c -0.390354,1.8272 -1.044544,3.6502 -1.237253,5.5115 -0.255236,2.4649 0.220756,4.9553 0,7.4235 -0.169947,1.8996 -2.082328,4.0433 -1.012298,5.6237 3.875989,2.8271 7.732196,-2.6383 9.598078,-5.174 1.856038,-2.5145 3.19904,-5.4403 4.086681,-8.4358 0.47754,-1.6115 0.793259,-3.2727 1.0123,-4.9489 H 76.899603 Z"
         id="path3074-8-7"
         inkscape:connector-curvature="0" />
      <path
         style="fill:#2060c2;fill-opacity:1;fill-rule:nonzero;stroke:none;stroke-width:1.19975996;stroke-linecap:butt;stroke-linejoin:round;stroke-miterlimit:100000"
         d="m 54.884002,952.54407 v 44.991 h 44.991 c 0,-11.92541 -4.761433,-23.36122 -13.19736,-31.79364 -8.43591,-8.43251 -19.863427,-13.19736 -31.79364,-13.19736 z"
         id="path4363-2-8-7-5-3-9-9-6-6"
         inkscape:connector-curvature="0" />
      <path
         sodipodi:nodetypes="cccccccccccccccccccccccccccc"
         style="fill:#6abb33;fill-opacity:1;stroke:#000000;stroke-width:0;stroke-linecap:butt;stroke-linejoin:miter;stroke-miterlimit:100;stroke-dasharray:none;stroke-opacity:1"
         d="m 86.790119,997.53507 h 12.44751 c 0.232425,-1.77881 0.338779,-3.57852 0.29994,-5.36143 -0.04442,-2.03808 -0.535928,-4.06336 -1.04979,-6.03629 -0.593059,-2.27706 -1.342234,-4.5351 -2.324535,-6.67367 -1.390537,-3.02745 -3.025007,-6.05218 -5.023995,-8.66076 -2.132165,-2.78243 -4.546361,-5.50425 -7.273545,-7.79844 -2.594456,-2.18253 -5.526683,-4.01922 -8.510797,-5.54889 -2.201531,-1.12848 -6.560876,-3.05352 -7.011098,-2.77445 -1.242916,0.77049 3.737538,1.2554 3.561788,2.73695 -0.08711,0.73441 -1.879509,0.17451 -2.024595,0.89982 -0.192776,0.96368 2.476704,1.26414 2.024595,2.13708 -0.488586,0.94338 -2.432432,-1.23453 -3.14937,-0.44991 -0.547182,0.5988 0.0084,1.76945 0.562387,2.36202 1.689965,1.28022 3.548889,1.34314 5.173965,0.56239 0.47864,-0.51354 0.0097,-1.64396 0.59988,-2.02459 2.652721,-0.79275 4.035352,1.84728 5.736353,2.81193 0.587344,0.31451 1.346864,0.20988 1.912117,0.56239 0.993495,0.61962 1.386613,1.93934 2.362028,2.58698 0.931171,0.61827 2.275865,0.47732 3.186862,1.12478 1.339998,1.18625 1.824455,1.36552 1.237253,2.4745 -4.584807,-1.45113 -8.815542,-5.45833 -13.084883,-6.52369 -3.48039,-0.77198 -6.402588,0.45842 -8.24835,3.26185 -0.888598,1.37953 -1.235094,3.08798 -1.34973,4.72405 0.267015,4.72024 2.364644,9.30694 6.411218,11.17277 2.668522,1.42471 5.799822,0.0314 8.135872,0.44991 2.538252,0.646 3.333086,2.58234 4.04919,4.72405 1.063225,3.37877 2.124046,6.09383 1.34973,9.26065 z"
         id="path4576-7-4-2-5-1-6-9-7"
         inkscape:connector-curvature="0" />
      <path
         inkscape:connector-curvature="0"
         inkscape:export-ydpi="450"
         inkscape:export-xdpi="450"
         inkscape:export-filename="/home/leo/src/fatiando/logo/fatiando-logo-white.png"
         id="path4363-5-1-04-7-3"
         d="m 26.750336,966.43874 c -4.996578,2.2245 -9.607892,5.35574 -13.550579,9.29684 C 4.7638369,984.16799 1.7442624e-6,995.55973 1.7442624e-6,1007.4853 c 0,11.9253 4.7638653557376,23.4049 13.1997562557376,31.8373 8.435918,8.4325 19.863219,13.1997 31.793431,13.1997 0.984276,0 1.962057,-0.068 2.93815,-0.1315 -1.276618,-1.1182 -2.519887,-2.2573 -3.727506,-3.4645 -14.491357,-14.4852 -22.672005,-34.1989 -22.672005,-54.68477 0,-9.61221 1.811647,-19.01038 5.218508,-27.80279 z"
         style="fill:#000000;fill-opacity:0.17741939;fill-rule:nonzero;stroke:none;stroke-width:1.31166041;stroke-linecap:butt;stroke-linejoin:round;stroke-miterlimit:100000" />
    </g>
    <g
       id="g1078"
       transform="matrix(2.103735,0,0,2.103735,32.860248,-1185.6016)"
       style="stroke-linecap:butt;stroke-linejoin:round;stroke-miterlimit:100000">
      <g
         id="g1045"
         transform="matrix(0.89031551,0,0,0.89031551,-15.170972,111.29742)"
         style="stroke-linecap:butt;stroke-linejoin:round;stroke-miterlimit:100000">
        <g
           aria-label="Fatiando a Terra"
           style="font-style:normal;font-variant:normal;font-weight:normal;font-stretch:normal;font-size:27.77581406px;line-height:1.25;font-family:'EB Garamond';-inkscape-font-specification:'EB Garamond';letter-spacing:0px;word-spacing:0px;fill:#ffffff;fill-opacity:1;stroke:none;stroke-width:1.48799002;stroke-linecap:butt;stroke-linejoin:round;stroke-miterlimit:100000"
           id="text1050">
          <path
             d="m -7.0432382,974.94906 q 0,-1.41657 -0.3888613,-2.08319 -0.3888614,-0.69439 -1.5554456,-0.69439 h -0.5555163 v -0.55552 H 1.5394884 q 2.3609442,0 2.3609442,2.22207 v 2.08318 H 3.3449163 q 0,-1.63877 -0.888826,-2.41649 -0.8888261,-0.77773 -2.58315075,-0.77773 H -4.5434149 v 7.36059 h 6.277334 v 1.11104 h -6.277334 v 8.74938 h -2.4998233 z"
             style="font-style:normal;font-variant:normal;font-weight:normal;font-stretch:normal;font-family:'El Messiri';-inkscape-font-specification:'El Messiri';fill:#ffffff;stroke-width:1.48799002;stroke-linecap:butt;stroke-linejoin:round;stroke-miterlimit:100000"
             id="path1082" />
          <path
             d="m 9.7706772,990.22576 q -0.8888261,0 -1.805428,-0.36109 -0.9166018,-0.38886 -1.5832214,-1.24991 -0.6388437,-0.86105 -0.6388437,-2.27762 0,-1.44434 0.9443777,-2.30539 0.9443777,-0.86105 2.5275991,-1.22214 1.5832211,-0.36108 3.6108561,-0.36108 h 0.833274 q 0,-2.72203 -0.749947,-3.72196 -0.749947,-0.99993 -2.166513,-0.99993 -1.249912,0 -1.999859,0.52774 -0.7499469,0.52774 -1.0554809,1.8332 H 6.4375795 q 0,-0.94437 0.1111032,-1.47211 0.1111033,-0.55552 0.5832921,-1.02771 0.4999647,-0.49996 1.638773,-0.72217 1.1665842,-0.24998 2.5275992,-0.24998 2.249841,0 3.555304,1.22213 1.305463,1.19436 1.305463,4.61079 v 7.49947 h -1.38879 l -0.972154,-1.24991 h -0.138879 q -0.499965,0.63884 -1.472118,1.08325 -0.972154,0.44442 -2.4164958,0.44442 z m 1.2499118,-1.24992 q 0.916602,0 1.52767,-0.44441 0.611067,-0.44441 1.111032,-1.22213 v -3.74974 h -0.833274 q -2.055411,0 -3.2497705,0.77772 -1.19436,0.74995 -1.19436,1.99986 0,1.27769 0.7499469,1.97209 0.7777228,0.66661 1.8887556,0.66661 z"
             style="font-style:normal;font-variant:normal;font-weight:normal;font-stretch:normal;font-family:'El Messiri';-inkscape-font-specification:'El Messiri';fill:#ffffff;stroke-width:1.48799002;stroke-linecap:butt;stroke-linejoin:round;stroke-miterlimit:100000"
             id="path1084" />
          <path
             d="m 23.866035,990.22576 q -1.555445,0 -2.444271,-0.88883 -0.888826,-0.88883 -0.888826,-2.72203 v -8.6105 h -1.944307 v -1.11103 h 1.944307 v -2.49983 l 1.38879,-1.66655 h 1.111033 v 4.16638 h 3.333098 v 1.11103 h -3.333098 v 8.6105 q 0,1.24991 0.472189,1.88876 0.499965,0.61106 1.472118,0.61106 0.66662,0 1.111033,-0.13888 0.472188,-0.13887 0.972153,-0.41663 l 0.277758,0.55551 q -0.638844,0.47219 -1.416566,0.8055 -0.777723,0.30554 -2.055411,0.30554 z"
             style="font-style:normal;font-variant:normal;font-weight:normal;font-stretch:normal;font-family:'El Messiri';-inkscape-font-specification:'El Messiri';fill:#ffffff;stroke-width:1.48799002;stroke-linecap:butt;stroke-linejoin:round;stroke-miterlimit:100000"
             id="path1086" />
          <path
             d="m 29.80702,980.22646 q 0,-1.41656 -0.388862,-2.08318 -0.388861,-0.6944 -1.555445,-0.6944 h -0.555517 v -0.55551 h 2.499824 q 1.027705,0 1.52767,0.27775 0.52774,0.24999 0.749946,0.94438 0.222207,0.6944 0.222207,2.11096 V 989.948 H 29.80702 Z m 1.055481,-4.99964 q -0.638844,0 -1.111033,-0.52774 -0.444413,-0.52774 -0.444413,-1.24992 0,-0.58329 0.33331,-0.9166 0.361085,-0.33331 0.944378,-0.33331 0.638843,0 1.083256,0.52774 0.472189,0.52774 0.472189,1.24991 0,0.5833 -0.361085,0.91661 -0.33331,0.33331 -0.916602,0.33331 z"
             style="font-style:normal;font-variant:normal;font-weight:normal;font-stretch:normal;font-family:'El Messiri';-inkscape-font-specification:'El Messiri';fill:#ffffff;stroke-width:1.48799002;stroke-linecap:butt;stroke-linejoin:round;stroke-miterlimit:100000"
             id="path1088" />
          <path
             d="m 39.336731,990.22576 q -0.888827,0 -1.805428,-0.36109 -0.916602,-0.38886 -1.583222,-1.24991 -0.638843,-0.86105 -0.638843,-2.27762 0,-1.44434 0.944377,-2.30539 0.944378,-0.86105 2.527599,-1.22214 1.583222,-0.36108 3.610856,-0.36108 h 0.833275 q 0,-2.72203 -0.749947,-3.72196 -0.749947,-0.99993 -2.166514,-0.99993 -1.249912,0 -1.999859,0.52774 -0.749947,0.52774 -1.055481,1.8332 h -1.249911 q 0,-0.94437 0.111103,-1.47211 0.111103,-0.55552 0.583292,-1.02771 0.499965,-0.49996 1.638773,-0.72217 1.166584,-0.24998 2.527599,-0.24998 2.249841,0 3.555305,1.22213 1.305463,1.19436 1.305463,4.61079 v 7.49947 h -1.388791 l -0.972153,-1.24991 h -0.138879 q -0.499965,0.63884 -1.472119,1.08325 -0.972153,0.44442 -2.416495,0.44442 z m 1.249911,-1.24992 q 0.916602,0 1.52767,-0.44441 0.611068,-0.44441 1.111033,-1.22213 v -3.74974 H 42.39207 q -2.05541,0 -3.24977,0.77772 -1.19436,0.74995 -1.19436,1.99986 0,1.27769 0.749947,1.97209 0.777723,0.66661 1.888755,0.66661 z"
             style="font-style:normal;font-variant:normal;font-weight:normal;font-stretch:normal;font-family:'El Messiri';-inkscape-font-specification:'El Messiri';fill:#ffffff;stroke-width:1.48799002;stroke-linecap:butt;stroke-linejoin:round;stroke-miterlimit:100000"
             id="path1090" />
          <path
             d="m 49.987886,980.22646 q 0,-1.41656 -0.388861,-2.08318 -0.388862,-0.6944 -1.555446,-0.6944 h -0.555516 v -0.55551 h 2.499823 q 1.027705,0 1.555446,0.27775 0.555516,0.27776 0.805498,0.83328 0.694396,-0.55552 1.638773,-0.97216 0.972154,-0.41663 2.110962,-0.41663 2.083186,0 3.388649,1.11103 1.333239,1.11103 1.333239,3.88861 V 989.948 H 58.32063 v -8.33275 q 0,-1.9443 -0.888826,-2.83313 -0.86105,-0.9166 -2.166513,-0.9166 -1.472118,0 -2.777582,1.47212 V 989.948 h -2.499823 z"
             style="font-style:normal;font-variant:normal;font-weight:normal;font-stretch:normal;font-family:'El Messiri';-inkscape-font-specification:'El Messiri';fill:#ffffff;stroke-width:1.48799002;stroke-linecap:butt;stroke-linejoin:round;stroke-miterlimit:100000"
             id="path1092" />
          <path
             d="m 69.012147,990.22576 q -2.416496,0 -3.721959,-1.91653 -1.277688,-1.91654 -1.277688,-4.88855 0,-2.97201 1.333239,-4.88854 1.361015,-1.91653 3.944166,-1.91653 1.055481,0 1.860979,0.2222 0.805499,0.22221 1.610998,0.61107 v -2.49982 q 0,-1.41657 -0.388862,-2.08319 -0.388861,-0.69439 -1.555445,-0.69439 h -0.555517 v -0.55552 h 2.499824 q 1.027705,0 1.527669,0.27776 0.527741,0.24998 0.749947,0.94438 0.222207,0.69439 0.222207,2.11096 V 989.948 h -1.388791 l -0.972153,-1.24991 h -0.138879 q -0.611068,0.69439 -1.444343,1.11103 -0.805498,0.41664 -2.305392,0.41664 z m 0.833274,-1.11104 q 1.138809,0 1.722101,-0.41663 0.583292,-0.41664 1.19436,-1.24992 v -8.88826 q -0.833275,-0.38886 -1.444343,-0.61106 -0.611068,-0.22221 -1.19436,-0.22221 -1.777652,0 -2.638702,1.55545 -0.833274,1.55544 -0.833274,4.13859 0,2.55538 0.805498,4.1386 0.805499,1.55544 2.38872,1.55544 z"
             style="font-style:normal;font-variant:normal;font-weight:normal;font-stretch:normal;font-family:'El Messiri';-inkscape-font-specification:'El Messiri';fill:#ffffff;stroke-width:1.48799002;stroke-linecap:butt;stroke-linejoin:round;stroke-miterlimit:100000"
             id="path1094" />
          <path
             d="m 84.60653,990.22576 q -1.888755,0 -3.277546,-0.88883 -1.388791,-0.9166 -2.110962,-2.47205 -0.722171,-1.55544 -0.722171,-3.4442 0,-1.88875 0.722171,-3.4442 0.722171,-1.55544 2.110962,-2.44427 1.388791,-0.9166 3.277546,-0.9166 1.888755,0 3.277546,0.9166 1.388791,0.88883 2.110962,2.44427 0.722171,1.55545 0.722171,3.4442 0,1.88876 -0.722171,3.4442 -0.722171,1.55545 -2.110962,2.47205 -1.388791,0.88883 -3.277546,0.88883 z m 0,-1.11104 q 1.027705,0 1.805428,-0.74994 0.805499,-0.74995 1.222136,-2.05541 0.444413,-1.30547 0.444413,-2.88869 0,-1.58322 -0.444413,-2.88868 -0.416637,-1.30547 -1.222136,-2.05541 -0.777723,-0.74995 -1.805428,-0.74995 -1.027705,0 -1.833204,0.74995 -0.777723,0.74994 -1.222136,2.05541 -0.416637,1.30546 -0.416637,2.88868 0,1.58322 0.416637,2.88869 0.444413,1.30546 1.222136,2.05541 0.805499,0.74994 1.833204,0.74994 z"
             style="font-style:normal;font-variant:normal;font-weight:normal;font-stretch:normal;font-family:'El Messiri';-inkscape-font-specification:'El Messiri';fill:#ffffff;stroke-width:1.48799002;stroke-linecap:butt;stroke-linejoin:round;stroke-miterlimit:100000"
             id="path1096" />
          <path
             d="m 104.0023,990.22576 q -0.88883,0 -1.80543,-0.36109 -0.9166,-0.38886 -1.58322,-1.24991 -0.638847,-0.86105 -0.638847,-2.27762 0,-1.44434 0.944377,-2.30539 0.94438,-0.86105 2.5276,-1.22214 1.58322,-0.36108 3.61086,-0.36108 h 0.83327 q 0,-2.72203 -0.74995,-3.72196 -0.74994,-0.99993 -2.16651,-0.99993 -1.24991,0 -1.99986,0.52774 -0.74995,0.52774 -1.05548,1.8332 h -1.24991 q 0,-0.94437 0.1111,-1.47211 0.1111,-0.55552 0.58329,-1.02771 0.49997,-0.49996 1.63878,-0.72217 1.16658,-0.24998 2.5276,-0.24998 2.24984,0 3.5553,1.22213 1.30546,1.19436 1.30546,4.61079 v 7.49947 h -1.38879 l -0.97215,-1.24991 h -0.13888 q -0.49996,0.63884 -1.47212,1.08325 -0.97215,0.44442 -2.41649,0.44442 z m 1.24991,-1.24992 q 0.9166,0 1.52767,-0.44441 0.61107,-0.44441 1.11103,-1.22213 v -3.74974 h -0.83327 q -2.05541,0 -3.24977,0.77772 -1.19436,0.74995 -1.19436,1.99986 0,1.27769 0.74994,1.97209 0.77773,0.66661 1.88876,0.66661 z"
             style="font-style:normal;font-variant:normal;font-weight:normal;font-stretch:normal;font-family:'El Messiri';-inkscape-font-specification:'El Messiri';fill:#ffffff;stroke-width:1.48799002;stroke-linecap:butt;stroke-linejoin:round;stroke-miterlimit:100000"
             id="path1098" />
          <path
             d="m 126.29151,972.72699 h -2.49982 q -1.69432,0 -2.58315,0.77773 -0.88883,0.77772 -0.88883,2.41649 h -0.55551 v -2.08318 q 0,-2.22207 2.36094,-2.22207 h 12.91576 v 1.11103 h -6.24956 V 989.948 h -2.49983 z"
             style="font-style:normal;font-variant:normal;font-weight:normal;font-stretch:normal;font-family:'El Messiri';-inkscape-font-specification:'El Messiri';fill:#ffffff;stroke-width:1.48799002;stroke-linecap:butt;stroke-linejoin:round;stroke-miterlimit:100000"
             id="path1100" />
          <path
             d="m 142.48438,990.22576 q -1.88875,0 -3.19422,-0.88883 -1.30546,-0.9166 -1.97208,-2.44427 -0.66662,-1.55545 -0.66662,-3.47198 0,-1.88875 0.66662,-3.4442 0.66662,-1.55544 1.91653,-2.44427 1.27769,-0.9166 2.97201,-0.9166 1.86098,0 3.08312,0.72217 1.24991,0.69439 1.86098,2.05541 0.61107,1.36101 0.61107,3.3331 l -0.0556,1.11103 h -8.41607 q 0,2.33317 0.99993,3.80529 0.99993,1.47211 2.74981,1.47211 1.30546,0 2.19429,-0.55551 0.9166,-0.55552 1.69432,-1.66655 l 0.55552,0.41664 q -0.9166,1.52767 -2.13874,2.22206 -1.22214,0.6944 -2.86091,0.6944 z m 2.6387,-7.49947 q 0,-2.44428 -0.72217,-3.72196 -0.72217,-1.27769 -2.19429,-1.27769 -0.83327,0 -1.49989,0.66662 -0.66662,0.63884 -1.05548,1.77765 -0.36109,1.13881 -0.36109,2.55538 z"
             style="font-style:normal;font-variant:normal;font-weight:normal;font-stretch:normal;font-family:'El Messiri';-inkscape-font-specification:'El Messiri';fill:#ffffff;stroke-width:1.48799002;stroke-linecap:butt;stroke-linejoin:round;stroke-miterlimit:100000"
             id="path1102" />
          <path
             d="m 151.18602,980.22646 q 0,-1.41656 -0.38886,-2.08318 -0.38886,-0.6944 -1.55545,-0.6944 h -0.27775 v -0.55551 h 2.22206 q 1.05548,0 1.58322,0.30553 0.55552,0.27776 0.77773,0.94438 0.61106,-0.61107 1.49989,-1.05548 0.88883,-0.47219 1.97208,-0.47219 1.11104,0 1.66655,0.41663 0.24998,0.16666 0.41664,0.41664 0.19443,0.22221 0.41664,0.61107 0.0278,0.0556 0.0556,0.1111 0.0556,0.0555 0.0833,0.11111 l -1.11104,0.83327 q -0.30553,-0.41664 -0.88882,-0.61107 -0.5833,-0.2222 -1.33324,-0.2222 -0.83328,0 -1.52767,0.38886 -0.6944,0.36108 -1.11103,0.99993 0,0.19443 0,0.41663 0,0.22221 0,0.41664 v 9.44378 h -2.49983 z"
             style="font-style:normal;font-variant:normal;font-weight:normal;font-stretch:normal;font-family:'El Messiri';-inkscape-font-specification:'El Messiri';fill:#ffffff;stroke-width:1.48799002;stroke-linecap:butt;stroke-linejoin:round;stroke-miterlimit:100000"
             id="path1104" />
          <path
             d="m 162.1987,980.22646 q 0,-1.41656 -0.38886,-2.08318 -0.38886,-0.6944 -1.55544,-0.6944 h -0.27776 v -0.55551 h 2.22206 q 1.05548,0 1.58322,0.30553 0.55552,0.27776 0.77773,0.94438 0.61106,-0.61107 1.49989,-1.05548 0.88883,-0.47219 1.97208,-0.47219 1.11104,0 1.66655,0.41663 0.24998,0.16666 0.41664,0.41664 0.19443,0.22221 0.41664,0.61107 0.0278,0.0556 0.0555,0.1111 0.0556,0.0555 0.0833,0.11111 l -1.11104,0.83327 q -0.30553,-0.41664 -0.88882,-0.61107 -0.5833,-0.2222 -1.33324,-0.2222 -0.83328,0 -1.52767,0.38886 -0.6944,0.36108 -1.11103,0.99993 0,0.19443 0,0.41663 0,0.22221 0,0.41664 v 9.44378 h -2.49983 z"
             style="font-style:normal;font-variant:normal;font-weight:normal;font-stretch:normal;font-family:'El Messiri';-inkscape-font-specification:'El Messiri';fill:#ffffff;stroke-width:1.48799002;stroke-linecap:butt;stroke-linejoin:round;stroke-miterlimit:100000"
             id="path1106" />
          <path
             d="m 176.10007,990.22576 q -0.88883,0 -1.80543,-0.36109 -0.9166,-0.38886 -1.58322,-1.24991 -0.63885,-0.86105 -0.63885,-2.27762 0,-1.44434 0.94438,-2.30539 0.94438,-0.86105 2.5276,-1.22214 1.58322,-0.36108 3.61086,-0.36108 h 0.83327 q 0,-2.72203 -0.74995,-3.72196 -0.74994,-0.99993 -2.16651,-0.99993 -1.24991,0 -1.99986,0.52774 -0.74995,0.52774 -1.05548,1.8332 h -1.24991 q 0,-0.94437 0.1111,-1.47211 0.11111,-0.55552 0.58329,-1.02771 0.49997,-0.49996 1.63878,-0.72217 1.16658,-0.24998 2.5276,-0.24998 2.24984,0 3.5553,1.22213 1.30546,1.19436 1.30546,4.61079 v 7.49947 h -1.38879 l -0.97215,-1.24991 h -0.13888 q -0.49996,0.63884 -1.47212,1.08325 -0.97215,0.44442 -2.41649,0.44442 z m 1.24991,-1.24992 q 0.9166,0 1.52767,-0.44441 0.61107,-0.44441 1.11103,-1.22213 v -3.74974 h -0.83327 q -2.05541,0 -3.24977,0.77772 -1.19436,0.74995 -1.19436,1.99986 0,1.27769 0.74994,1.97209 0.77773,0.66661 1.88876,0.66661 z"
             style="font-style:normal;font-variant:normal;font-weight:normal;font-stretch:normal;font-family:'El Messiri';-inkscape-font-specification:'El Messiri';fill:#ffffff;stroke-width:1.48799002;stroke-linecap:butt;stroke-linejoin:round;stroke-miterlimit:100000"
             id="path1108" />
        </g>
        <g
           aria-label="Open-source tools for geophysics"
           style="font-style:normal;font-variant:normal;font-weight:normal;font-stretch:normal;font-size:14.11073208px;line-height:1.25;font-family:'EB Garamond';-inkscape-font-specification:'EB Garamond';letter-spacing:0px;word-spacing:0px;fill:#b3b3b3;fill-opacity:1;stroke:none;stroke-width:0.75593209;stroke-linecap:butt;stroke-linejoin:round;stroke-miterlimit:100000"
           id="text1058">
          <path
             d="m -5.195505,1012.2823 q -1.2518347,0 -2.2075365,-0.6192 -0.9422411,-0.6191 -1.4537435,-1.696 -0.5115024,-1.0768 -0.5115024,-2.396 0,-1.3191 0.5115024,-2.396 0.5115024,-1.0768 1.4537435,-1.696 0.9557018,-0.6192 2.2075365,-0.6192 1.2518348,0 2.194076,0.6192 0.9557017,0.6192 1.4672041,1.696 0.5115024,1.0769 0.5115024,2.396 0,1.3192 -0.5115024,2.396 -0.5115024,1.0769 -1.4672041,1.696 -0.9422412,0.6192 -2.194076,0.6192 z m 0,-0.5384 q 0.8749383,0 1.507586,-0.5115 0.6461082,-0.5115 0.9826229,-1.4403 0.3365147,-0.9422 0.3365147,-2.221 0,-1.2787 -0.3365147,-2.2075 -0.3365147,-0.9422 -0.9826229,-1.4538 -0.6326477,-0.5115 -1.507586,-0.5115 -0.8749382,0 -1.5210464,0.5115 -0.6326477,0.5116 -0.9691624,1.4538 -0.3365147,0.9288 -0.3365147,2.2075 0,1.2788 0.3365147,2.221 0.3365147,0.9288 0.9691624,1.4403 0.6461082,0.5115 1.5210464,0.5115 z"
             style="font-style:normal;font-variant:normal;font-weight:normal;font-stretch:normal;font-size:13.46058846px;font-family:'El Messiri';-inkscape-font-specification:'El Messiri';fill:#b3b3b3;stroke-width:0.75593209;stroke-linecap:butt;stroke-linejoin:round;stroke-miterlimit:100000"
             id="path1111" />
          <path
             d="m 0.77952399,1007.3019 q 0,-0.6865 -0.18844824,-1.0095 -0.18844823,-0.3365 -0.75379295,-0.3365 h -0.26921177 v -0.2693 h 1.21145296 q 0.51150241,0 0.76725351,0.1481 0.2692118,0.1346 0.3768965,0.4577 0.7403324,-0.7404 1.8844824,-0.7404 1.1576106,0 1.7902583,0.9423 0.6326476,0.9288 0.6326476,2.3556 0,1.4403 -0.6595688,2.369 -0.6461083,0.9288 -1.897943,0.9288 -0.5115024,0 -0.9018594,-0.1077 -0.3903571,-0.1076 -0.7807141,-0.2961 v 2.8267 H 0.77952399 Z m 2.49020891,4.3074 q 0.8614776,0 1.2652953,-0.7538 0.4172782,-0.7538 0.4172782,-2.0056 0,-1.2384 -0.3903571,-1.9922 -0.390357,-0.7672 -1.1576106,-0.7672 -0.9018594,0 -1.4133617,0.8076 v 4.3074 q 0.4038176,0.1884 0.6999506,0.2961 0.2961329,0.1077 0.5788053,0.1077 z"
             style="font-style:normal;font-variant:normal;font-weight:normal;font-stretch:normal;font-size:13.46058846px;font-family:'El Messiri';-inkscape-font-specification:'El Messiri';fill:#b3b3b3;stroke-width:0.75593209;stroke-linecap:butt;stroke-linejoin:round;stroke-miterlimit:100000"
             id="path1113" />
          <path
             d="m 10.270711,1012.1477 q -0.9153203,0 -1.547968,-0.4307 -0.6326476,-0.4442 -0.9557017,-1.1845 -0.3230542,-0.7538 -0.3230542,-1.6826 0,-0.9153 0.3230542,-1.6691 0.3230541,-0.7538 0.9287806,-1.1846 0.619187,-0.4442 1.4402831,-0.4442 0.901859,0 1.494125,0.35 0.605727,0.3365 0.90186,0.9961 0.296133,0.6596 0.296133,1.6153 l -0.02692,0.5384 H 8.722743 q 0,1.1307 0.4845812,1.8441 0.4845812,0.7134 1.3325978,0.7134 0.632648,0 1.063387,-0.2692 0.444199,-0.2692 0.821096,-0.8076 l 0.269212,0.2019 q -0.4442,0.7403 -1.036466,1.0768 -0.592266,0.3365 -1.38644,0.3365 z m 1.278756,-3.6343 q 0,-1.1846 -0.349976,-1.8037 -0.349975,-0.6192 -1.063386,-0.6192 -0.4038178,0 -0.726872,0.323 -0.3230541,0.3096 -0.5115023,0.8615 -0.1749877,0.5519 -0.1749877,1.2384 z"
             style="font-style:normal;font-variant:normal;font-weight:normal;font-stretch:normal;font-size:13.46058846px;font-family:'El Messiri';-inkscape-font-specification:'El Messiri';fill:#b3b3b3;stroke-width:0.75593209;stroke-linecap:butt;stroke-linejoin:round;stroke-miterlimit:100000"
             id="path1115" />
          <path
             d="m 14.581885,1007.3019 q 0,-0.6865 -0.188448,-1.0095 -0.188448,-0.3365 -0.753793,-0.3365 h -0.269211 v -0.2693 h 1.211452 q 0.498042,0 0.753793,0.1347 0.269212,0.1346 0.390357,0.4038 0.336515,-0.2692 0.794175,-0.4712 0.471121,-0.2019 1.023005,-0.2019 1.009544,0 1.642192,0.5385 0.646108,0.5384 0.646108,1.8844 v 4.0382 h -1.211453 v -4.0382 q 0,-0.9422 -0.430739,-1.3729 -0.417278,-0.4442 -1.049926,-0.4442 -0.713411,0 -1.346059,0.7134 v 5.1419 h -1.211453 z"
             style="font-style:normal;font-variant:normal;font-weight:normal;font-stretch:normal;font-size:13.46058846px;font-family:'El Messiri';-inkscape-font-specification:'El Messiri';fill:#b3b3b3;stroke-width:0.75593209;stroke-linecap:butt;stroke-linejoin:round;stroke-miterlimit:100000"
             id="path1117" />
          <path
             d="m 21.634182,1007.9749 h 3.43245 v 0.9423 h -3.43245 z"
             style="font-style:normal;font-variant:normal;font-weight:normal;font-stretch:normal;font-size:13.46058846px;font-family:'El Messiri';-inkscape-font-specification:'El Messiri';fill:#b3b3b3;stroke-width:0.75593209;stroke-linecap:butt;stroke-linejoin:round;stroke-miterlimit:100000"
             id="path1119" />
          <path
             d="m 29.033721,1012.1477 q -1.547968,0 -2.086391,-0.5384 -0.22883,-0.2288 -0.282673,-0.5115 -0.05384,-0.2961 -0.05384,-0.9019 h 0.269212 q 0.121145,0.6731 0.578805,1.05 0.471121,0.3634 1.305677,0.3634 0.740333,0 1.103769,-0.2557 0.376896,-0.2558 0.376896,-0.6865 0,-0.3904 -0.296133,-0.6731 -0.282672,-0.2826 -0.91532,-0.5384 l -0.807635,-0.3365 q -0.807636,-0.3231 -1.211453,-0.7538 -0.403818,-0.4307 -0.403818,-1.0634 0,-0.8211 0.619187,-1.2787 0.619187,-0.4712 1.60181,-0.4712 1.480665,0 2.019088,0.5385 0.22883,0.2288 0.282673,0.5115 0.05384,0.2826 0.05384,0.9018 h -0.269212 q -0.107684,-0.673 -0.565344,-1.0364 -0.45766,-0.3769 -1.251835,-0.3769 -0.632648,0 -0.996084,0.2692 -0.349975,0.2557 -0.349975,0.673 0,0.35 0.269212,0.6461 0.282672,0.2827 0.807635,0.4981 l 0.807635,0.3365 q 0.915321,0.3769 1.332599,0.8076 0.417278,0.4173 0.417278,1.0769 0,0.821 -0.659569,1.2922 -0.659569,0.4576 -1.696034,0.4576 z"
             style="font-style:normal;font-variant:normal;font-weight:normal;font-stretch:normal;font-size:13.46058846px;font-family:'El Messiri';-inkscape-font-specification:'El Messiri';fill:#b3b3b3;stroke-width:0.75593209;stroke-linecap:butt;stroke-linejoin:round;stroke-miterlimit:100000"
             id="path1121" />
          <path
             d="m 35.51247,1012.1477 q -0.91532,0 -1.58835,-0.4307 -0.673029,-0.4442 -1.023005,-1.198 -0.349975,-0.7538 -0.349975,-1.6691 0,-0.9153 0.349975,-1.6691 0.349976,-0.7538 1.023005,-1.1846 0.67303,-0.4442 1.58835,-0.4442 0.91532,0 1.588349,0.4442 0.673029,0.4308 1.023005,1.1846 0.349975,0.7538 0.349975,1.6691 0,0.9153 -0.349975,1.6691 -0.349976,0.7538 -1.023005,1.198 -0.673029,0.4307 -1.588349,0.4307 z m 0,-0.5384 q 0.498041,0 0.874938,-0.3634 0.390357,-0.3635 0.592266,-0.9961 0.215369,-0.6327 0.215369,-1.3999 0,-0.7673 -0.215369,-1.3999 -0.201909,-0.6327 -0.592266,-0.9961 -0.376897,-0.3634 -0.874938,-0.3634 -0.498042,0 -0.888399,0.3634 -0.376897,0.3634 -0.592266,0.9961 -0.201909,0.6326 -0.201909,1.3999 0,0.7672 0.201909,1.3999 0.215369,0.6326 0.592266,0.9961 0.390357,0.3634 0.888399,0.3634 z"
             style="font-style:normal;font-variant:normal;font-weight:normal;font-stretch:normal;font-size:13.46058846px;font-family:'El Messiri';-inkscape-font-specification:'El Messiri';fill:#b3b3b3;stroke-width:0.75593209;stroke-linecap:butt;stroke-linejoin:round;stroke-miterlimit:100000"
             id="path1123" />
          <path
             d="m 42.340986,1012.1477 q -1.009545,0 -1.655653,-0.5384 -0.632647,-0.5384 -0.632647,-1.8845 v -2.4229 q 0,-0.6865 -0.188449,-1.0095 -0.188448,-0.3365 -0.753793,-0.3365 h -0.134605 v -0.2693 h 1.076847 q 0.498041,0 0.740332,0.1347 0.255751,0.1211 0.363436,0.4576 0.107685,0.3365 0.107685,1.023 v 2.4229 q 0,0.9423 0.417278,1.3865 0.430739,0.4307 1.063386,0.4307 0.376897,0 0.713411,-0.2019 0.349976,-0.2019 0.632648,-0.5115 v -5.142 h 1.211453 v 6.3265 h -0.673029 l -0.471121,-0.5384 h -0.0673 q -0.282672,0.2827 -0.740332,0.4846 -0.4442,0.1884 -1.009544,0.1884 z"
             style="font-style:normal;font-variant:normal;font-weight:normal;font-stretch:normal;font-size:13.46058846px;font-family:'El Messiri';-inkscape-font-specification:'El Messiri';fill:#b3b3b3;stroke-width:0.75593209;stroke-linecap:butt;stroke-linejoin:round;stroke-miterlimit:100000"
             id="path1125" />
          <path
             d="m 47.350428,1007.3019 q 0,-0.6865 -0.188449,-1.0095 -0.188448,-0.3365 -0.753793,-0.3365 h -0.134605 v -0.2693 h 1.076847 q 0.511502,0 0.767253,0.1481 0.269212,0.1346 0.376897,0.4577 0.296133,-0.2962 0.726871,-0.5115 0.430739,-0.2289 0.955702,-0.2289 0.538424,0 0.807636,0.2019 0.121145,0.081 0.201908,0.202 0.09422,0.1076 0.201909,0.2961 0.01346,0.027 0.02692,0.054 0.02692,0.027 0.04038,0.054 l -0.538423,0.4038 q -0.148067,-0.2019 -0.430739,-0.2961 -0.282673,-0.1077 -0.646109,-0.1077 -0.403817,0 -0.740332,0.1884 -0.336515,0.175 -0.538423,0.4846 0,0.094 0,0.2019 0,0.1077 0,0.2019 v 4.5766 h -1.211453 z"
             style="font-style:normal;font-variant:normal;font-weight:normal;font-stretch:normal;font-size:13.46058846px;font-family:'El Messiri';-inkscape-font-specification:'El Messiri';fill:#b3b3b3;stroke-width:0.75593209;stroke-linecap:butt;stroke-linejoin:round;stroke-miterlimit:100000"
             id="path1127" />
          <path
             d="m 55.177547,1012.1477 q -0.969163,0 -1.642192,-0.4307 -0.659569,-0.4442 -0.996084,-1.1845 -0.323054,-0.7538 -0.323054,-1.6826 0,-0.9288 0.323054,-1.6691 0.336515,-0.7538 0.996084,-1.1846 0.673029,-0.4442 1.642192,-0.4442 1.480664,0 1.951785,0.4712 0.22883,0.2288 0.282672,0.5653 0.05384,0.3231 0.05384,1.1845 h -0.269212 q -0.05384,-0.8345 -0.524963,-1.2518 -0.471121,-0.4307 -1.224913,-0.4307 -0.969163,0 -1.467205,0.7672 -0.484581,0.7673 -0.484581,1.9922 0,1.2249 0.484581,1.9922 0.498042,0.7672 1.467205,0.7672 0.68649,0 1.130689,-0.2557 0.444199,-0.2693 0.821096,-0.8211 l 0.269212,0.2019 q -0.4442,0.7538 -1.049926,1.0903 -0.605727,0.323 -1.440283,0.323 z"
             style="font-style:normal;font-variant:normal;font-weight:normal;font-stretch:normal;font-size:13.46058846px;font-family:'El Messiri';-inkscape-font-specification:'El Messiri';fill:#b3b3b3;stroke-width:0.75593209;stroke-linecap:butt;stroke-linejoin:round;stroke-miterlimit:100000"
             id="path1129" />
          <path
             d="m 61.536628,1012.1477 q -0.91532,0 -1.547968,-0.4307 -0.632648,-0.4442 -0.955702,-1.1845 -0.323054,-0.7538 -0.323054,-1.6826 0,-0.9153 0.323054,-1.6691 0.323054,-0.7538 0.928781,-1.1846 0.619187,-0.4442 1.440283,-0.4442 0.901859,0 1.494125,0.35 0.605726,0.3365 0.901859,0.9961 0.296133,0.6596 0.296133,1.6153 l -0.02692,0.5384 H 59.98866 q 0,1.1307 0.484581,1.8441 0.484581,0.7134 1.332598,0.7134 0.632648,0 1.063387,-0.2692 0.444199,-0.2692 0.821096,-0.8076 l 0.269211,0.2019 q -0.444199,0.7403 -1.036465,1.0768 -0.592266,0.3365 -1.38644,0.3365 z m 1.278755,-3.6343 q 0,-1.1846 -0.349975,-1.8037 -0.349975,-0.6192 -1.063386,-0.6192 -0.403818,0 -0.726872,0.323 -0.323054,0.3096 -0.511502,0.8615 -0.174988,0.5519 -0.174988,1.2384 z"
             style="font-style:normal;font-variant:normal;font-weight:normal;font-stretch:normal;font-size:13.46058846px;font-family:'El Messiri';-inkscape-font-specification:'El Messiri';fill:#b3b3b3;stroke-width:0.75593209;stroke-linecap:butt;stroke-linejoin:round;stroke-miterlimit:100000"
             id="path1131" />
          <path
             d="m 70.88206,1012.1477 q -0.753793,0 -1.184532,-0.4307 -0.430739,-0.4307 -0.430739,-1.3191 v -4.1728 h -0.942241 v -0.5385 h 0.942241 v -1.2114 l 0.67303,-0.8076 h 0.538423 v 2.019 h 1.615271 v 0.5385 h -1.615271 v 4.1728 q 0,0.6057 0.22883,0.9153 0.242291,0.2961 0.713412,0.2961 0.323054,0 0.538423,-0.067 0.22883,-0.067 0.471121,-0.2019 l 0.134606,0.2692 q -0.309594,0.2288 -0.68649,0.3904 -0.376897,0.148 -0.996084,0.148 z"
             style="font-style:normal;font-variant:normal;font-weight:normal;font-stretch:normal;font-size:13.46058846px;font-family:'El Messiri';-inkscape-font-specification:'El Messiri';fill:#b3b3b3;stroke-width:0.75593209;stroke-linecap:butt;stroke-linejoin:round;stroke-miterlimit:100000"
             id="path1133" />
          <path
             d="m 76.157134,1012.1477 q -0.91532,0 -1.588349,-0.4307 -0.67303,-0.4442 -1.023005,-1.198 -0.349975,-0.7538 -0.349975,-1.6691 0,-0.9153 0.349975,-1.6691 0.349975,-0.7538 1.023005,-1.1846 0.673029,-0.4442 1.588349,-0.4442 0.91532,0 1.58835,0.4442 0.673029,0.4308 1.023004,1.1846 0.349976,0.7538 0.349976,1.6691 0,0.9153 -0.349976,1.6691 -0.349975,0.7538 -1.023004,1.198 -0.67303,0.4307 -1.58835,0.4307 z m 0,-0.5384 q 0.498042,0 0.874939,-0.3634 0.390357,-0.3635 0.592265,-0.9961 0.21537,-0.6327 0.21537,-1.3999 0,-0.7673 -0.21537,-1.3999 -0.201908,-0.6327 -0.592265,-0.9961 -0.376897,-0.3634 -0.874939,-0.3634 -0.498041,0 -0.888399,0.3634 -0.376896,0.3634 -0.592265,0.9961 -0.201909,0.6326 -0.201909,1.3999 0,0.7672 0.201909,1.3999 0.215369,0.6326 0.592265,0.9961 0.390358,0.3634 0.888399,0.3634 z"
             style="font-style:normal;font-variant:normal;font-weight:normal;font-stretch:normal;font-size:13.46058846px;font-family:'El Messiri';-inkscape-font-specification:'El Messiri';fill:#b3b3b3;stroke-width:0.75593209;stroke-linecap:butt;stroke-linejoin:round;stroke-miterlimit:100000"
             id="path1135" />
          <path
             d="m 83.281783,1012.1477 q -0.91532,0 -1.588349,-0.4307 -0.67303,-0.4442 -1.023005,-1.198 -0.349975,-0.7538 -0.349975,-1.6691 0,-0.9153 0.349975,-1.6691 0.349975,-0.7538 1.023005,-1.1846 0.673029,-0.4442 1.588349,-0.4442 0.91532,0 1.58835,0.4442 0.673029,0.4308 1.023005,1.1846 0.349975,0.7538 0.349975,1.6691 0,0.9153 -0.349975,1.6691 -0.349976,0.7538 -1.023005,1.198 -0.67303,0.4307 -1.58835,0.4307 z m 0,-0.5384 q 0.498042,0 0.874939,-0.3634 0.390357,-0.3635 0.592265,-0.9961 0.21537,-0.6327 0.21537,-1.3999 0,-0.7673 -0.21537,-1.3999 -0.201908,-0.6327 -0.592265,-0.9961 -0.376897,-0.3634 -0.874939,-0.3634 -0.498041,0 -0.888398,0.3634 -0.376897,0.3634 -0.592266,0.9961 -0.201909,0.6326 -0.201909,1.3999 0,0.7672 0.201909,1.3999 0.215369,0.6326 0.592266,0.9961 0.390357,0.3634 0.888398,0.3634 z"
             style="font-style:normal;font-variant:normal;font-weight:normal;font-stretch:normal;font-size:13.46058846px;font-family:'El Messiri';-inkscape-font-specification:'El Messiri';fill:#b3b3b3;stroke-width:0.75593209;stroke-linecap:butt;stroke-linejoin:round;stroke-miterlimit:100000"
             id="path1137" />
          <path
             d="m 87.862381,1004.7444 q 0,-0.6865 -0.188448,-1.0095 -0.188448,-0.3366 -0.753793,-0.3366 h -0.269212 v -0.2692 h 1.211453 q 0.498042,0 0.740333,0.1346 0.255751,0.1212 0.363435,0.4577 0.107685,0.3365 0.107685,1.023 v 7.2687 h -1.211453 z"
             style="font-style:normal;font-variant:normal;font-weight:normal;font-stretch:normal;font-size:13.46058846px;font-family:'El Messiri';-inkscape-font-specification:'El Messiri';fill:#b3b3b3;stroke-width:0.75593209;stroke-linecap:butt;stroke-linejoin:round;stroke-miterlimit:100000"
             id="path1139" />
          <path
             d="m 93.181838,1012.1477 q -1.547968,0 -2.086391,-0.5384 -0.22883,-0.2288 -0.282672,-0.5115 -0.05384,-0.2961 -0.05384,-0.9019 h 0.269212 q 0.121145,0.6731 0.578805,1.05 0.471121,0.3634 1.305677,0.3634 0.740333,0 1.103769,-0.2557 0.376896,-0.2558 0.376896,-0.6865 0,-0.3904 -0.296133,-0.6731 -0.282672,-0.2826 -0.91532,-0.5384 l -0.807635,-0.3365 q -0.807636,-0.3231 -1.211453,-0.7538 -0.403818,-0.4307 -0.403818,-1.0634 0,-0.8211 0.619187,-1.2787 0.619187,-0.4712 1.60181,-0.4712 1.480665,0 2.019089,0.5385 0.22883,0.2288 0.282672,0.5115 0.05384,0.2826 0.05384,0.9018 H 95.06632 q -0.107684,-0.673 -0.565344,-1.0364 -0.45766,-0.3769 -1.251835,-0.3769 -0.632648,0 -0.996084,0.2692 -0.349975,0.2557 -0.349975,0.673 0,0.35 0.269212,0.6461 0.282672,0.2827 0.807635,0.4981 l 0.807636,0.3365 q 0.91532,0.3769 1.332598,0.8076 0.417278,0.4173 0.417278,1.0769 0,0.821 -0.659569,1.2922 -0.659569,0.4576 -1.696034,0.4576 z"
             style="font-style:normal;font-variant:normal;font-weight:normal;font-stretch:normal;font-size:13.46058846px;font-family:'El Messiri';-inkscape-font-specification:'El Messiri';fill:#b3b3b3;stroke-width:0.75593209;stroke-linecap:butt;stroke-linejoin:round;stroke-miterlimit:100000"
             id="path1141" />
          <path
             d="m 100.68359,1006.2251 h -0.94224 v -0.5385 h 0.94224 v -0.4038 q 0,-1.2922 0.65957,-1.7902 0.67303,-0.4981 1.69603,-0.4981 0.41728,0 0.69995,0.054 0.29614,0.054 0.4442,0.148 0.22883,0.175 0.47112,0.6058 l -0.40381,0.3365 q -0.20191,-0.2962 -0.52497,-0.4442 -0.32305,-0.1615 -0.75379,-0.1615 -0.49804,0 -0.79417,0.4038 -0.28268,0.4038 -0.28268,1.346 v 0.4038 h 1.88449 v 0.5385 h -1.88449 v 5.788 h -1.21145 z"
             style="font-style:normal;font-variant:normal;font-weight:normal;font-stretch:normal;font-size:13.46058846px;font-family:'El Messiri';-inkscape-font-specification:'El Messiri';fill:#b3b3b3;stroke-width:0.75593209;stroke-linecap:butt;stroke-linejoin:round;stroke-miterlimit:100000"
             id="path1143" />
          <path
             d="m 107.57394,1012.1477 q -0.91532,0 -1.58835,-0.4307 -0.67303,-0.4442 -1.023,-1.198 -0.34998,-0.7538 -0.34998,-1.6691 0,-0.9153 0.34998,-1.6691 0.34997,-0.7538 1.023,-1.1846 0.67303,-0.4442 1.58835,-0.4442 0.91532,0 1.58835,0.4442 0.67303,0.4308 1.02301,1.1846 0.34997,0.7538 0.34997,1.6691 0,0.9153 -0.34997,1.6691 -0.34998,0.7538 -1.02301,1.198 -0.67303,0.4307 -1.58835,0.4307 z m 0,-0.5384 q 0.49805,0 0.87494,-0.3634 0.39036,-0.3635 0.59227,-0.9961 0.21537,-0.6327 0.21537,-1.3999 0,-0.7673 -0.21537,-1.3999 -0.20191,-0.6327 -0.59227,-0.9961 -0.37689,-0.3634 -0.87494,-0.3634 -0.49804,0 -0.8884,0.3634 -0.37689,0.3634 -0.59226,0.9961 -0.20191,0.6326 -0.20191,1.3999 0,0.7672 0.20191,1.3999 0.21537,0.6326 0.59226,0.9961 0.39036,0.3634 0.8884,0.3634 z"
             style="font-style:normal;font-variant:normal;font-weight:normal;font-stretch:normal;font-size:13.46058846px;font-family:'El Messiri';-inkscape-font-specification:'El Messiri';fill:#b3b3b3;stroke-width:0.75593209;stroke-linecap:butt;stroke-linejoin:round;stroke-miterlimit:100000"
             id="path1145" />
          <path
             d="m 112.20838,1007.3019 q 0,-0.6865 -0.18844,-1.0095 -0.18845,-0.3365 -0.7538,-0.3365 h -0.1346 v -0.2693 h 1.07684 q 0.51151,0 0.76726,0.1481 0.26921,0.1346 0.37689,0.4577 0.29614,-0.2962 0.72688,-0.5115 0.43073,-0.2289 0.9557,-0.2289 0.53842,0 0.80763,0.2019 0.12115,0.081 0.20191,0.202 0.0942,0.1076 0.20191,0.2961 0.0135,0.027 0.0269,0.054 0.0269,0.027 0.0404,0.054 l -0.53842,0.4038 q -0.14807,-0.2019 -0.43074,-0.2961 -0.28267,-0.1077 -0.64611,-0.1077 -0.40382,0 -0.74033,0.1884 -0.33651,0.175 -0.53842,0.4846 0,0.094 0,0.2019 0,0.1077 0,0.2019 v 4.5766 h -1.21146 z"
             style="font-style:normal;font-variant:normal;font-weight:normal;font-stretch:normal;font-size:13.46058846px;font-family:'El Messiri';-inkscape-font-specification:'El Messiri';fill:#b3b3b3;stroke-width:0.75593209;stroke-linecap:butt;stroke-linejoin:round;stroke-miterlimit:100000"
             id="path1147" />
          <path
             d="m 123.14489,1014.7052 q -1.35952,0 -2.16715,-0.498 -0.79418,-0.498 -0.79418,-1.5884 0,-0.6191 0.41728,-1.0768 0.41728,-0.4577 1.06339,-0.673 -0.53843,-0.2962 -0.53843,-0.8077 0,-0.2692 0.12115,-0.4172 0.12114,-0.1616 0.32305,-0.2962 l 0.0269,-0.027 q -0.43074,-0.2154 -0.72687,-0.673 -0.28267,-0.4577 -0.28267,-1.0769 0,-1.0903 0.68649,-1.5479 0.69995,-0.4712 1.87102,-0.4712 h 2.49021 v 0.3366 l -0.87494,0.1346 q 0.40382,0.2557 0.67303,0.6595 0.26921,0.4038 0.26921,0.8884 0,1.0903 -0.69995,1.5615 -0.68649,0.4576 -1.85756,0.4576 -0.69995,0 -1.06339,0.1212 -0.34997,0.1211 -0.34997,0.3499 0,0.2289 0.34997,0.35 0.36344,0.1212 1.06339,0.1212 1.30568,0 2.12677,0.5249 0.83456,0.5115 0.83456,1.5614 0,1.0904 -0.80764,1.5884 -0.79417,0.498 -2.15369,0.498 z m 0,-0.5384 q 0.80764,0 1.27876,-0.3903 0.47112,-0.3769 0.47112,-1.1577 0,-0.673 -0.40382,-1.0499 -0.40382,-0.3903 -1.21145,-0.498 l -0.74034,-0.067 q -0.55188,0.2153 -0.84801,0.6057 -0.29614,0.3904 -0.29614,1.0095 0,0.7808 0.47112,1.1577 0.47113,0.3903 1.27876,0.3903 z m 0,-5.0477 q 0.60573,0 0.96916,-0.3634 0.3769,-0.3769 0.3769,-1.1846 0,-0.7672 -0.3769,-1.1576 -0.36343,-0.3903 -0.96916,-0.3903 -0.60573,0 -0.98262,0.3769 -0.36344,0.3634 -0.36344,1.171 0,0.8077 0.36344,1.1846 0.37689,0.3634 0.98262,0.3634 z"
             style="font-style:normal;font-variant:normal;font-weight:normal;font-stretch:normal;font-size:13.46058846px;font-family:'El Messiri';-inkscape-font-specification:'El Messiri';fill:#b3b3b3;stroke-width:0.75593209;stroke-linecap:butt;stroke-linejoin:round;stroke-miterlimit:100000"
             id="path1149" />
          <path
             d="m 129.89117,1012.1477 q -0.91532,0 -1.54796,-0.4307 -0.63265,-0.4442 -0.95571,-1.1845 -0.32305,-0.7538 -0.32305,-1.6826 0,-0.9153 0.32305,-1.6691 0.32306,-0.7538 0.92878,-1.1846 0.61919,-0.4442 1.44029,-0.4442 0.90186,0 1.49412,0.35 0.60573,0.3365 0.90186,0.9961 0.29613,0.6596 0.29613,1.6153 l -0.0269,0.5384 h -4.07855 q 0,1.1307 0.48458,1.8441 0.48458,0.7134 1.33259,0.7134 0.63265,0 1.06339,-0.2692 0.4442,-0.2692 0.8211,-0.8076 l 0.26921,0.2019 q -0.4442,0.7403 -1.03647,1.0768 -0.59226,0.3365 -1.38644,0.3365 z m 1.27876,-3.6343 q 0,-1.1846 -0.34998,-1.8037 -0.34997,-0.6192 -1.06338,-0.6192 -0.40382,0 -0.72687,0.323 -0.32306,0.3096 -0.51151,0.8615 -0.17498,0.5519 -0.17498,1.2384 z"
             style="font-style:normal;font-variant:normal;font-weight:normal;font-stretch:normal;font-size:13.46058846px;font-family:'El Messiri';-inkscape-font-specification:'El Messiri';fill:#b3b3b3;stroke-width:0.75593209;stroke-linecap:butt;stroke-linejoin:round;stroke-miterlimit:100000"
             id="path1151" />
          <path
             d="m 136.59833,1012.1477 q -0.91532,0 -1.58834,-0.4307 -0.67303,-0.4442 -1.02301,-1.198 -0.34997,-0.7538 -0.34997,-1.6691 0,-0.9153 0.34997,-1.6691 0.34998,-0.7538 1.02301,-1.1846 0.67302,-0.4442 1.58834,-0.4442 0.91532,0 1.58835,0.4442 0.67303,0.4308 1.02301,1.1846 0.34997,0.7538 0.34997,1.6691 0,0.9153 -0.34997,1.6691 -0.34998,0.7538 -1.02301,1.198 -0.67303,0.4307 -1.58835,0.4307 z m 0,-0.5384 q 0.49805,0 0.87494,-0.3634 0.39036,-0.3635 0.59227,-0.9961 0.21537,-0.6327 0.21537,-1.3999 0,-0.7673 -0.21537,-1.3999 -0.20191,-0.6327 -0.59227,-0.9961 -0.37689,-0.3634 -0.87494,-0.3634 -0.49804,0 -0.88839,0.3634 -0.3769,0.3634 -0.59227,0.9961 -0.20191,0.6326 -0.20191,1.3999 0,0.7672 0.20191,1.3999 0.21537,0.6326 0.59227,0.9961 0.39035,0.3634 0.88839,0.3634 z"
             style="font-style:normal;font-variant:normal;font-weight:normal;font-stretch:normal;font-size:13.46058846px;font-family:'El Messiri';-inkscape-font-specification:'El Messiri';fill:#b3b3b3;stroke-width:0.75593209;stroke-linecap:butt;stroke-linejoin:round;stroke-miterlimit:100000"
             id="path1153" />
          <path
             d="m 141.327,1007.3019 q 0,-0.6865 -0.18845,-1.0095 -0.18845,-0.3365 -0.75379,-0.3365 h -0.26921 v -0.2693 h 1.21145 q 0.5115,0 0.76725,0.1481 0.26921,0.1346 0.3769,0.4577 0.74033,-0.7404 1.88448,-0.7404 1.15761,0 1.79026,0.9423 0.63265,0.9288 0.63265,2.3556 0,1.4403 -0.65957,2.369 -0.64611,0.9288 -1.89794,0.9288 -0.51151,0 -0.90186,-0.1077 -0.39036,-0.1076 -0.78072,-0.2961 v 2.8267 H 141.327 Z m 2.49021,4.3074 q 0.86148,0 1.26529,-0.7538 0.41728,-0.7538 0.41728,-2.0056 0,-1.2384 -0.39036,-1.9922 -0.39035,-0.7672 -1.15761,-0.7672 -0.90186,0 -1.41336,0.8076 v 4.3074 q 0.40382,0.1884 0.69995,0.2961 0.29614,0.1077 0.57881,0.1077 z"
             style="font-style:normal;font-variant:normal;font-weight:normal;font-stretch:normal;font-size:13.46058846px;font-family:'El Messiri';-inkscape-font-specification:'El Messiri';fill:#b3b3b3;stroke-width:0.75593209;stroke-linecap:butt;stroke-linejoin:round;stroke-miterlimit:100000"
             id="path1155" />
          <path
             d="m 148.3549,1004.7444 q 0,-0.6865 -0.18845,-1.0095 -0.18844,-0.3366 -0.75379,-0.3366 h -0.26921 v -0.2692 h 1.21145 q 0.49804,0 0.74034,0.1346 0.25575,0.1212 0.36343,0.4577 0.10769,0.3365 0.10769,1.023 v 1.4807 q 0.28267,-0.2827 0.72687,-0.4712 0.45766,-0.2019 1.023,-0.2019 1.00955,0 1.64219,0.5385 0.64611,0.5384 0.64611,1.8844 v 4.0382 h -1.21145 v -4.0382 q 0,-0.9422 -0.43074,-1.3729 -0.41728,-0.4442 -1.04993,-0.4442 -0.71341,0 -1.34605,0.7134 v 5.1419 h -1.21146 z"
             style="font-style:normal;font-variant:normal;font-weight:normal;font-stretch:normal;font-size:13.46058846px;font-family:'El Messiri';-inkscape-font-specification:'El Messiri';fill:#b3b3b3;stroke-width:0.75593209;stroke-linecap:butt;stroke-linejoin:round;stroke-miterlimit:100000"
             id="path1157" />
          <path
             d="m 155.92375,1014.3014 q 0.65957,0 1.07685,-0.3096 0.43074,-0.2961 0.74033,-1.1037 l 0.26921,-0.7404 -2.15369,-5.2496 q -0.3769,-0.9692 -1.48067,-1.0768 v -0.2693 h 1.14415 q 0.59227,0 0.99609,0.2827 0.40381,0.2692 0.61918,0.7942 l 1.53451,3.7286 1.69604,-4.6709 h 0.67302 l -2.62481,7.2015 q -0.39036,1.0633 -0.86148,1.4402 -0.47112,0.3769 -1.22491,0.3769 h -0.40382 z"
             style="font-style:normal;font-variant:normal;font-weight:normal;font-stretch:normal;font-size:13.46058846px;font-family:'El Messiri';-inkscape-font-specification:'El Messiri';fill:#b3b3b3;stroke-width:0.75593209;stroke-linecap:butt;stroke-linejoin:round;stroke-miterlimit:100000"
             id="path1159" />
          <path
             d="m 164.50719,1012.1477 q -1.54797,0 -2.0864,-0.5384 -0.22883,-0.2288 -0.28267,-0.5115 -0.0538,-0.2961 -0.0538,-0.9019 h 0.26921 q 0.12115,0.6731 0.57881,1.05 0.47112,0.3634 1.30567,0.3634 0.74034,0 1.10377,-0.2557 0.3769,-0.2558 0.3769,-0.6865 0,-0.3904 -0.29613,-0.6731 -0.28268,-0.2826 -0.91532,-0.5384 l -0.80764,-0.3365 q -0.80763,-0.3231 -1.21145,-0.7538 -0.40382,-0.4307 -0.40382,-1.0634 0,-0.8211 0.61919,-1.2787 0.61918,-0.4712 1.60181,-0.4712 1.48066,0 2.01909,0.5385 0.22883,0.2288 0.28267,0.5115 0.0538,0.2826 0.0538,0.9018 h -0.26921 q -0.10769,-0.673 -0.56535,-1.0364 -0.45766,-0.3769 -1.25183,-0.3769 -0.63265,0 -0.99608,0.2692 -0.34998,0.2557 -0.34998,0.673 0,0.35 0.26921,0.6461 0.28267,0.2827 0.80764,0.4981 l 0.80763,0.3365 q 0.91532,0.3769 1.3326,0.8076 0.41728,0.4173 0.41728,1.0769 0,0.821 -0.65957,1.2922 -0.65957,0.4576 -1.69603,0.4576 z"
             style="font-style:normal;font-variant:normal;font-weight:normal;font-stretch:normal;font-size:13.46058846px;font-family:'El Messiri';-inkscape-font-specification:'El Messiri';fill:#b3b3b3;stroke-width:0.75593209;stroke-linecap:butt;stroke-linejoin:round;stroke-miterlimit:100000"
             id="path1161" />
          <path
             d="m 168.58995,1007.3019 q 0,-0.6865 -0.18844,-1.0095 -0.18845,-0.3365 -0.7538,-0.3365 h -0.26921 v -0.2693 h 1.21145 q 0.49805,0 0.74034,0.1347 0.25575,0.1211 0.36343,0.4576 0.10769,0.3365 0.10769,1.023 v 4.7112 h -1.21146 z m 0.51151,-2.4229 q -0.3096,0 -0.53843,-0.2557 -0.21537,-0.2558 -0.21537,-0.6058 0,-0.2826 0.16153,-0.4442 0.17499,-0.1615 0.45766,-0.1615 0.30959,0 0.52496,0.2558 0.22883,0.2557 0.22883,0.6057 0,0.2827 -0.17498,0.4442 -0.16153,0.1615 -0.4442,0.1615 z"
             style="font-style:normal;font-variant:normal;font-weight:normal;font-stretch:normal;font-size:13.46058846px;font-family:'El Messiri';-inkscape-font-specification:'El Messiri';fill:#b3b3b3;stroke-width:0.75593209;stroke-linecap:butt;stroke-linejoin:round;stroke-miterlimit:100000"
             id="path1163" />
          <path
             d="m 174.2985,1012.1477 q -0.96916,0 -1.64219,-0.4307 -0.65957,-0.4442 -0.99609,-1.1845 -0.32305,-0.7538 -0.32305,-1.6826 0,-0.9288 0.32305,-1.6691 0.33652,-0.7538 0.99609,-1.1846 0.67303,-0.4442 1.64219,-0.4442 1.48066,0 1.95178,0.4712 0.22883,0.2288 0.28268,0.5653 0.0538,0.3231 0.0538,1.1845 h -0.26921 q -0.0538,-0.8345 -0.52497,-1.2518 -0.47112,-0.4307 -1.22491,-0.4307 -0.96916,0 -1.4672,0.7672 -0.48458,0.7673 -0.48458,1.9922 0,1.2249 0.48458,1.9922 0.49804,0.7672 1.4672,0.7672 0.68649,0 1.13069,-0.2557 0.4442,-0.2693 0.8211,-0.8211 l 0.26921,0.2019 q -0.4442,0.7538 -1.04993,1.0903 -0.60572,0.323 -1.44028,0.323 z"
             style="font-style:normal;font-variant:normal;font-weight:normal;font-stretch:normal;font-size:13.46058846px;font-family:'El Messiri';-inkscape-font-specification:'El Messiri';fill:#b3b3b3;stroke-width:0.75593209;stroke-linecap:butt;stroke-linejoin:round;stroke-miterlimit:100000"
             id="path1165" />
          <path
             d="m 180.3076,1012.1477 q -1.54797,0 -2.08639,-0.5384 -0.22883,-0.2288 -0.28267,-0.5115 -0.0538,-0.2961 -0.0538,-0.9019 h 0.26921 q 0.12114,0.6731 0.5788,1.05 0.47112,0.3634 1.30568,0.3634 0.74033,0 1.10377,-0.2557 0.37689,-0.2558 0.37689,-0.6865 0,-0.3904 -0.29613,-0.6731 -0.28267,-0.2826 -0.91532,-0.5384 l -0.80763,-0.3365 q -0.80764,-0.3231 -1.21146,-0.7538 -0.40381,-0.4307 -0.40381,-1.0634 0,-0.8211 0.61918,-1.2787 0.61919,-0.4712 1.60181,-0.4712 1.48067,0 2.01909,0.5385 0.22883,0.2288 0.28267,0.5115 0.0538,0.2826 0.0538,0.9018 h -0.26922 q -0.10768,-0.673 -0.56534,-1.0364 -0.45766,-0.3769 -1.25184,-0.3769 -0.63264,0 -0.99608,0.2692 -0.34997,0.2557 -0.34997,0.673 0,0.35 0.26921,0.6461 0.28267,0.2827 0.80763,0.4981 l 0.80764,0.3365 q 0.91532,0.3769 1.3326,0.8076 0.41727,0.4173 0.41727,1.0769 0,0.821 -0.65956,1.2922 -0.65957,0.4576 -1.69604,0.4576 z"
             style="font-style:normal;font-variant:normal;font-weight:normal;font-stretch:normal;font-size:13.46058846px;font-family:'El Messiri';-inkscape-font-specification:'El Messiri';fill:#b3b3b3;stroke-width:0.75593209;stroke-linecap:butt;stroke-linejoin:round;stroke-miterlimit:100000"
             id="path1167" />
        </g>
      </g>
    </g>
  </g>
</svg>
