<?xml version="1.0" encoding="UTF-8" standalone="no"?>
<!-- Created with Inkscape (http://www.inkscape.org/) -->

<svg
   xmlns:dc="http://purl.org/dc/elements/1.1/"
   xmlns:cc="http://creativecommons.org/ns#"
   xmlns:rdf="http://www.w3.org/1999/02/22-rdf-syntax-ns#"
   xmlns:svg="http://www.w3.org/2000/svg"
   xmlns="http://www.w3.org/2000/svg"
   xmlns:sodipodi="http://sodipodi.sourceforge.net/DTD/sodipodi-0.dtd"
   xmlns:inkscape="http://www.inkscape.org/namespaces/inkscape"
   width="500"
   height="80"
   viewBox="0 0 132.29168 21.166666"
   version="1.1"
   id="svg8"
   inkscape:version="0.92.4 5da689c313, 2019-01-14"
   sodipodi:docname="boule-logo.svg"
   inkscape:export-filename="readme-banner.png"
   inkscape:export-xdpi="39.080002"
   inkscape:export-ydpi="39.080002">
  <defs
     id="defs2" />
  <sodipodi:namedview
     id="base"
     pagecolor="#ffffff"
     bordercolor="#666666"
     borderopacity="1.0"
     inkscape:pageopacity="0.0"
     inkscape:pageshadow="2"
     inkscape:zoom="1.5068446"
     inkscape:cx="263.96287"
     inkscape:cy="-29.360864"
     inkscape:document-units="mm"
     inkscape:current-layer="layer1"
     showgrid="false"
     fit-margin-top="0"
     fit-margin-left="0"
     fit-margin-right="0"
     fit-margin-bottom="0"
     inkscape:window-width="1920"
     inkscape:window-height="1080"
     inkscape:window-x="0"
     inkscape:window-y="0"
     inkscape:window-maximized="0"
     units="px" />
  <metadata
     id="metadata5">
    <rdf:RDF>
      <cc:Work
         rdf:about="">
        <dc:format>image/svg+xml</dc:format>
        <dc:type
           rdf:resource="http://purl.org/dc/dcmitype/StillImage" />
        <dc:title />
      </cc:Work>
    </rdf:RDF>
  </metadata>
  <g
     inkscape:label="Layer 1"
     inkscape:groupmode="layer"
     id="layer1"
     transform="translate(2407.4105,-1480.325)">
    <g
       aria-label="Boule"
       style="font-style:normal;font-weight:normal;font-size:23.75414276px;line-height:1.25;font-family:sans-serif;letter-spacing:0px;word-spacing:0px;fill:#333333;fill-opacity:1;stroke:none;stroke-width:0.59385359"
       id="text3722">
      <path
         d="m -2366.6459,1499.1748 q -0.6889,0 -0.6889,-0.2613 0,-0.1663 0.19,-0.2613 0.1901,-0.095 0.5939,-0.1663 0.9501,-0.1662 1.4015,-0.5701 0.4513,-0.4038 0.4513,-1.2114 v -10.6894 q 0,-0.8551 -0.3801,-1.259 -0.3563,-0.4038 -1.2114,-0.475 -0.3801,-0.024 -0.5939,-0.1663 -0.19,-0.1426 -0.19,-0.3088 0,-0.2613 0.6889,-0.2613 1.0689,0 1.4252,0.024 h 1.0452 q 0.3563,0 1.0214,-0.047 1.2115,-0.071 1.6153,-0.071 2.8505,0 4.1807,0.8314 1.3303,0.8076 1.3303,2.7079 0,0.7364 -0.2613,1.354 -0.2376,0.6176 -0.5464,0.9264 -0.38,0.3801 -0.7126,0.5939 -0.3088,0.19 -0.8789,0.4276 -0.095,0.047 -0.095,0.1425 0,0.071 0.095,0.095 0.9977,0.3326 1.6628,0.7126 0.6889,0.3801 1.1877,1.164 0.5226,0.7601 0.5226,2.0428 0,1.2115 -0.3801,1.9954 -0.38,0.7601 -0.9026,1.1639 -0.4989,0.3801 -1.1877,0.7364 -1.6153,0.8076 -4.0383,0.8076 l -0.7126,-0.024 q -0.6413,-0.071 -1.544,-0.071 -0.5938,0 -1.449,0.047 -0.6651,0.071 -1.639,0.071 z m 4.8933,-8.9316 q 1.6391,0 2.8743,-0.6888 0.38,-0.2138 0.7126,-0.7839 0.3563,-0.5701 0.3563,-1.4728 0,-1.2827 -0.7601,-2.2091 -0.7364,-0.9264 -2.708,-0.9264 -0.9264,0 -1.259,0.2613 -0.3088,0.2375 -0.3088,0.8076 v 4.1332 q 0,0.8789 1.0927,0.8789 z m 0.7839,7.9339 q 1.0452,0 1.9478,-0.4751 0.9027,-0.475 1.449,-1.3064 0.5464,-0.8314 0.5464,-1.8291 0,-1.2115 -0.5464,-1.9478 -0.5225,-0.7364 -1.2114,-1.1165 -1.0689,-0.5938 -2.708,-0.5938 -0.6889,0 -1.0214,0.285 -0.3326,0.2613 -0.3326,0.5701 v 4.7271 q 0,0.9501 0.4514,1.3302 0.4513,0.3563 1.4252,0.3563 z"
         style="font-style:normal;font-variant:normal;font-weight:normal;font-stretch:normal;font-family:'EB Garamond';-inkscape-font-specification:'EB Garamond';fill:#333333;fill-opacity:1;stroke-width:0.59385359"
         id="path3724" />
      <path
         d="m -2348.284,1499.3886 q -1.3065,0 -2.3992,-0.6176 -1.0689,-0.6176 -1.7103,-1.7103 -0.6176,-1.0927 -0.6176,-2.4467 0,-1.3065 0.6889,-2.5654 0.7126,-1.259 1.9003,-2.0429 1.2115,-0.7839 2.613,-0.7839 1.354,0 2.4704,0.6651 1.1165,0.6414 1.7578,1.7578 0.6652,1.0927 0.6652,2.3517 0,1.4252 -0.6177,2.6605 -0.6176,1.2352 -1.829,1.9953 -1.2115,0.7364 -2.9218,0.7364 z m 0.4989,-0.7126 q 1.7815,0 2.4466,-1.3065 0.4751,-0.9264 0.4751,-2.803 0,-1.1402 -0.4276,-2.2091 -0.4275,-1.069 -1.1877,-1.7341 -0.7601,-0.6651 -1.734,-0.6651 -0.6889,0 -1.1877,0.2138 -0.4989,0.2138 -0.9027,0.7364 -0.4276,0.5463 -0.5938,1.3539 -0.1663,0.7839 -0.1663,1.8054 0,1.1877 0.4276,2.2566 0.4275,1.0452 1.1639,1.7103 0.7601,0.6414 1.6866,0.6414 z"
         style="font-style:normal;font-variant:normal;font-weight:normal;font-stretch:normal;font-family:'EB Garamond';-inkscape-font-specification:'EB Garamond';fill:#333333;fill-opacity:1;stroke-width:0.59385359"
         id="path3726" />
      <path
         d="m -2333.3902,1499.5074 q -0.1662,0 -0.1662,-0.1901 l 0.048,-0.6413 q 0.071,-0.4751 0.071,-0.8314 v -0.1426 q -0.9026,0.9027 -1.8528,1.3065 -0.9502,0.3801 -2.0666,0.3801 -1.2115,0 -1.9716,-0.7364 -0.7364,-0.7364 -0.7364,-2.0904 v -4.822 q 0,-0.5226 -0.2375,-0.8314 -0.2376,-0.3088 -0.7839,-0.5226 -0.3088,-0.095 -0.3088,-0.3801 0,-0.3326 0.3563,-0.3801 0.7364,-0.048 1.164,-0.1187 0.4275,-0.071 1.1877,-0.2613 l 0.19,-0.024 q 0.2613,0 0.2375,0.3326 -0.1425,1.0927 -0.1425,1.829 v 4.6321 q 0,0.8551 0.6176,1.5203 0.6176,0.6413 1.3778,0.6413 0.7126,0 1.1402,-0.071 0.4513,-0.095 0.8551,-0.4039 0.4276,-0.3088 0.7364,-0.7126 0.3325,-0.4276 0.3325,-1.0689 v -4.347 q 0,-0.6414 -0.5463,-0.9027 -0.5226,-0.285 -1.0452,-0.285 -0.4988,0 -0.4988,-0.4039 0,-0.3563 0.4988,-0.3563 1.0214,-0.024 1.6153,-0.095 0.6176,-0.095 1.3065,-0.285 0.1425,-0.047 0.2375,-0.047 0.1188,0 0.2138,0.071 0.095,0.071 0.095,0.1901 l -0.048,0.2137 q -0.047,0.2613 -0.1188,0.7602 -0.048,0.4751 -0.048,0.8789 v 5.4872 q 0,1.1877 0.4276,1.1877 l 0.5464,-0.048 0.5463,-0.024 q 0.3563,0 0.3563,0.3088 0,0.1901 -0.095,0.2613 -0.071,0.048 -0.2375,0.071 -0.8077,0.1188 -1.4253,0.3088 -0.6176,0.19 -1.354,0.4988 -0.285,0.1426 -0.4751,0.1426 z"
         style="font-style:normal;font-variant:normal;font-weight:normal;font-stretch:normal;font-family:'EB Garamond';-inkscape-font-specification:'EB Garamond';fill:#333333;fill-opacity:1;stroke-width:0.59385359"
         id="path3728" />
      <path
         d="m -2328.6394,1499.1273 q -0.4751,0 -0.4751,-0.2138 0,-0.1663 0.1188,-0.2375 0.1425,-0.095 0.4276,-0.1901 0.5226,-0.1662 0.7601,-0.3088 0.2613,-0.1663 0.2613,-0.5938 v -11.9721 q 0,-1.4965 -1.0927,-1.7341 -0.095,-0.024 -0.1425,-0.095 -0.048,-0.095 -0.048,-0.2138 0,-0.2375 0.1663,-0.285 0.9264,-0.2138 2.1141,-0.7126 l 0.5701,-0.2138 q 0.095,-0.047 0.1425,-0.047 0.048,0 0.071,0.071 0.048,0.048 0.048,0.095 0,0.1426 -0.095,0.9027 -0.071,0.7601 -0.071,2.3279 v 11.8771 q 0,0.4275 0.2376,0.5938 0.2612,0.1426 0.7838,0.3088 0.2851,0.095 0.4039,0.1901 0.1425,0.071 0.1425,0.2375 0,0.2138 -0.4751,0.2138 -0.6176,0 -1.0214,-0.071 -0.5226,-0.048 -0.9027,-0.048 -0.38,0 -0.9026,0.048 -0.3801,0.071 -1.0215,0.071 z"
         style="font-style:normal;font-variant:normal;font-weight:normal;font-stretch:normal;font-family:'EB Garamond';-inkscape-font-specification:'EB Garamond';fill:#333333;fill-opacity:1;stroke-width:0.59385359"
         id="path3730" />
      <path
         d="m -2318.8052,1499.4123 q -1.2827,0 -2.2804,-0.6413 -0.9739,-0.6414 -1.5202,-1.8053 -0.5464,-1.1877 -0.5464,-2.7318 0,-1.3302 0.6176,-2.4941 0.6414,-1.164 1.6866,-1.8291 1.0452,-0.6889 2.2804,-0.6889 1.4252,0 2.3279,0.8552 0.9264,0.8314 0.9264,2.1378 0,0.7364 -0.7126,0.7364 h -5.0121 q -0.3326,0 -0.4751,0.19 -0.1188,0.1663 -0.1188,0.6889 0,1.1165 0.4751,2.0666 0.4988,0.9502 1.3302,1.5203 0.8552,0.5463 1.8528,0.5463 1.4015,0 2.3279,-1.0689 0.1426,-0.19 0.2613,-0.19 0.1901,0 0.1901,0.2375 0,0.4513 -0.4276,0.9977 -0.5226,0.6889 -1.3777,1.0927 -0.8552,0.38 -1.8054,0.38 z m -0.024,-7.1975 q 1.1164,0 1.7578,-0.1187 0.19,-0.024 0.19,-0.5226 0,-0.6889 -0.6176,-1.164 -0.5938,-0.4988 -1.4252,-0.4988 -0.5226,0 -1.0927,0.3325 -0.5464,0.3088 -0.9027,0.7839 -0.3563,0.4751 -0.3563,0.9502 0,0.2375 0.2851,0.2375 z"
         style="font-style:normal;font-variant:normal;font-weight:normal;font-stretch:normal;font-family:'EB Garamond';-inkscape-font-specification:'EB Garamond';fill:#333333;fill-opacity:1;stroke-width:0.59385359"
         id="path3732" />
    </g>
  </g>
</svg>
