<?xml version="1.0" encoding="UTF-8" standalone="no"?>
<!-- Created with Inkscape (http://www.inkscape.org/) -->

<svg
   xmlns:dc="http://purl.org/dc/elements/1.1/"
   xmlns:cc="http://creativecommons.org/ns#"
   xmlns:rdf="http://www.w3.org/1999/02/22-rdf-syntax-ns#"
   xmlns:svg="http://www.w3.org/2000/svg"
   xmlns="http://www.w3.org/2000/svg"
   xmlns:sodipodi="http://sodipodi.sourceforge.net/DTD/sodipodi-0.dtd"
   xmlns:inkscape="http://www.inkscape.org/namespaces/inkscape"
   width="500"
   height="80"
   viewBox="0 0 132.29168 21.166666"
   version="1.1"
   id="svg8"
   inkscape:version="0.92.4 5da689c313, 2019-01-14"
   sodipodi:docname="harmonica-logo.svg"
   inkscape:export-filename="readme-banner.png"
   inkscape:export-xdpi="39.080002"
   inkscape:export-ydpi="39.080002">
  <defs
     id="defs2" />
  <sodipodi:namedview
     id="base"
     pagecolor="#ffffff"
     bordercolor="#666666"
     borderopacity="1.0"
     inkscape:pageopacity="0.0"
     inkscape:pageshadow="2"
     inkscape:zoom="2.8284272"
     inkscape:cx="250.6691"
     inkscape:cy="-119.10392"
     inkscape:document-units="mm"
     inkscape:current-layer="layer1"
     showgrid="false"
     fit-margin-top="0"
     fit-margin-left="0"
     fit-margin-right="0"
     fit-margin-bottom="0"
     inkscape:window-width="3200"
     inkscape:window-height="1800"
     inkscape:window-x="0"
     inkscape:window-y="0"
     inkscape:window-maximized="0"
     units="px" />
  <metadata
     id="metadata5">
    <rdf:RDF>
      <cc:Work
         rdf:about="">
        <dc:format>image/svg+xml</dc:format>
        <dc:type
           rdf:resource="http://purl.org/dc/dcmitype/StillImage" />
        <dc:title></dc:title>
      </cc:Work>
    </rdf:RDF>
  </metadata>
  <g
     inkscape:label="Layer 1"
     inkscape:groupmode="layer"
     id="layer1"
     transform="translate(2407.4105,-1480.325)">
    <g
       id="g861"
       transform="matrix(0.94657414,0,0,0.94657414,-128.61802,79.653007)">
      <g
         transform="matrix(0.10193745,0,0,0.10193745,-2147.1172,1429.8198)"
         id="g1147">
        <g
           id="g1083"
           transform="translate(-417.82943,-603.24269)">
          <path
             sodipodi:nodetypes="cccc"
             inkscape:connector-curvature="0"
             id="path815-3-6-9-6"
             d="m -1947.1099,1302.5176 h -188.5212 l 94.2606,-188.5211 z"
             style="fill:#ebeff7;fill-opacity:1;fill-rule:nonzero;stroke-width:0.94450217" />
          <path
             inkscape:connector-curvature="0"
             id="path815-0"
             d="m -1935.6313,1302.5177 -99.9996,-200.0002 -15.0781,30.1563 84.9219,169.8439 z"
             style="fill:#2270e8;fill-opacity:1;stroke-width:1.00201178" />
          <path
             sodipodi:nodetypes="cccc"
             inkscape:connector-curvature="0"
             id="path815-3-6-9"
             d="m -1975.8361,1302.5176 h -159.795 l 79.8975,-159.7949 z"
             style="fill:#f45353;fill-opacity:1;fill-rule:nonzero;stroke-width:0.80058223" />
        </g>
      </g>
      <g
         transform="matrix(0.11065088,0,0,0.11065088,-2144.8697,1334.9608)"
         id="text1040"
         style="font-style:normal;font-variant:normal;font-weight:normal;font-stretch:normal;font-size:17.91323662px;line-height:1.25;font-family:'EB Garamond';-inkscape-font-specification:'EB Garamond';letter-spacing:0px;word-spacing:0px;fill:#333333;fill-opacity:1;stroke:none;stroke-width:0.9596377"
         aria-label="harmonica">
        <path
           id="path822"
           style="font-size:255.90341187px;fill:#333333;stroke-width:0.9596377"
           d="m -2143.6514,1498.4209 q -5.118,0 -5.118,-2.8149 0,-1.5354 1.2795,-2.3032 1.2795,-0.7677 4.6063,-1.7913 5.118,-1.5354 7.933,-3.5826 2.8149,-2.3032 3.0708,-6.9094 v -128.2076 q 0,-16.3779 -11.2598,-18.4251 -2.3031,-0.5118 -2.3031,-3.5826 0,-2.3032 2.0472,-3.0709 20.2164,-6.3976 28.4053,-9.9802 1.0236,-0.5118 1.5354,-0.5118 1.7914,0 1.7914,1.7913 0,1.2795 -1.2795,7.933 -1.0237,6.3976 -1.0237,26.8699 v 44.5272 q 0,3.8385 0.2559,5.8858 0.5118,1.7913 1.5355,3.5826 21.7518,-16.1219 38.8973,-16.1219 12.5392,0 20.7282,9.9802 8.4448,9.9803 8.4448,24.8226 v 53.7398 q 0,8.1889 10.492,11.2597 3.0708,0.7677 4.3504,1.7913 1.5354,0.7678 1.5354,2.3032 0,2.8149 -5.1181,2.8149 -6.3976,0 -10.7479,-0.7677 -5.1181,-0.5118 -9.2125,-0.5118 -4.0945,0 -9.2126,0.5118 -4.0944,0.7677 -10.7479,0.7677 -5.1181,0 -5.1181,-2.8149 0,-1.5354 1.0236,-2.0473 1.2795,-0.7677 4.8622,-2.0472 4.6063,-1.5354 7.1653,-4.0944 2.8149,-2.5591 2.8149,-7.1653 v -52.2043 q 0,-6.1417 -3.5826,-11.2598 -3.5827,-5.374 -9.2125,-8.4448 -5.374,-3.3267 -11.0039,-3.3267 -5.374,0 -11.7715,1.5354 -6.1417,1.5354 -9.4685,4.0944 -4.0944,3.3268 -5.6298,7.1653 -1.2796,3.5827 -1.2796,11.2598 v 51.9484 q 0.2559,4.6062 2.815,6.9094 2.559,2.0472 7.1653,3.5826 2.8149,0.7677 4.0944,1.7913 1.5354,0.7678 1.5354,2.3032 0,1.5354 -1.2795,2.0472 -1.0236,0.7677 -3.8385,0.7677 -6.6535,0 -10.4921,-0.7677 -4.6062,-0.5118 -8.9566,-0.5118 -4.0944,0 -9.7243,0.5118 -4.0945,0.7677 -11.0039,0.7677 z"
           inkscape:connector-curvature="0" />
        <path
           id="path824"
           style="font-size:255.90341187px;fill:#333333;stroke-width:0.9596377"
           d="m -1991.7407,1501.2358 q -4.3504,0 -9.2125,-3.5826 -4.8622,-3.3267 -8.1889,-8.4448 -3.0709,-5.374 -3.0709,-9.9802 0,-7.9331 4.0945,-12.5393 4.3503,-4.6063 14.0747,-8.7007 l 26.1021,-10.748 q 4.8622,-2.0472 5.8858,-3.5826 1.0236,-1.5354 1.2795,-6.6535 l 0.5118,-16.3778 q 0.2559,-6.9094 -3.8385,-11.5157 -4.0945,-4.8621 -11.2598,-4.8621 -3.8385,0 -7.6771,1.2795 -3.8385,1.2795 -6.3976,3.3267 -2.559,1.7913 -2.559,7.4212 l 0.2559,4.6063 q 0,2.0472 -6.6535,5.6298 -6.3976,3.3268 -10.2361,3.3268 -1.2795,0 -2.0472,-0.5118 -0.7678,-0.7677 -0.7678,-1.7913 0,-4.0945 2.5591,-8.7008 2.8149,-4.8621 7.6771,-8.9566 8.7007,-7.933 19.4486,-13.051 11.0039,-5.1181 18.681,-5.1181 9.2125,0 15.0983,6.6535 6.1417,6.3976 5.8858,16.1219 l -1.2796,61.4168 q -0.2559,5.374 2.3032,8.7007 2.559,3.3268 6.9094,3.3268 6.3976,0 9.4684,-2.815 1.2795,-1.2795 2.0472,-1.2795 1.2795,0 2.0473,0.7677 0.7677,0.7677 0.7677,2.0473 0,1.0236 -0.7677,2.8149 -0.7678,1.5354 -2.0473,2.8149 -4.0944,4.0945 -8.9566,6.3976 -4.6063,2.559 -8.7007,2.559 -11.7716,0 -18.681,-13.3069 h -0.7677 q -8.4448,6.9094 -16.1219,9.9802 -7.6771,3.3267 -15.866,3.3267 z m 12.0275,-12.2833 q 8.9566,0 15.0983,-6.1417 1.5354,-1.5354 2.3031,-3.8386 0.7677,-2.3031 1.0236,-6.6534 l 0.5118,-12.5393 v -1.5354 q 0,-2.0473 -0.5118,-2.815 -0.5118,-1.0236 -1.7913,-1.0236 -1.5354,0 -5.1181,1.2795 -12.7952,4.6063 -18.425,9.7244 -5.6299,5.118 -5.6299,9.9802 0,6.3976 3.5826,9.9802 3.8386,3.5827 8.9567,3.5827 z"
           inkscape:connector-curvature="0" />
        <path
           id="path826"
           style="font-size:255.90341187px;fill:#333333;stroke-width:0.9596377"
           d="m -1907.1806,1498.4209 q -5.1181,0 -5.1181,-2.8149 0,-1.7914 1.2795,-2.3032 1.2796,-0.7677 4.6063,-1.7913 9.7243,-2.3031 9.7243,-9.7243 v -55.0192 q 0,-7.6771 -2.3031,-12.2834 -2.3031,-4.8622 -8.1889,-6.1417 -1.0236,-0.2559 -1.7913,-1.2795 -0.7677,-1.0236 -0.7677,-2.0472 0,-1.0237 0.7677,-1.7914 0.7677,-1.0236 1.5354,-1.2795 10.2361,-3.3267 25.3344,-12.5392 2.815,-1.7914 3.8386,-1.7914 1.2795,0 1.2795,1.7914 0,6.9093 -0.7677,19.1927 0,0.5118 0.5118,0.5118 6.3976,-7.6771 14.3306,-12.5392 7.933,-4.8622 15.0983,-4.8622 5.374,0 8.7007,2.3031 3.5826,2.3031 3.5826,5.8858 0,4.0944 -3.3267,8.7007 -3.0708,4.6063 -6.6535,4.6063 -2.559,0 -7.1653,-2.3032 -0.7677,-0.2559 -3.5826,-1.2795 -2.5591,-1.0236 -4.6063,-1.0236 -7.4212,0 -12.5393,4.8622 -5.118,4.8621 -5.118,16.6337 v 51.6925 q 0,3.3267 3.3267,5.6299 3.3268,2.0472 10.2362,4.0944 3.0708,1.0236 4.3503,1.7913 1.5354,0.7678 1.5354,2.3032 0,2.8149 -5.118,2.8149 -6.9094,0 -12.0275,-0.7677 -6.1417,-0.5118 -10.2361,-0.5118 -4.0945,0 -9.7244,0.5118 -4.0944,0.7677 -11.0038,0.7677 z"
           inkscape:connector-curvature="0" />
        <path
           id="path828"
           style="font-size:255.90341187px;fill:#333333;stroke-width:0.9596377"
           d="m -1822.9924,1498.4209 q -5.1181,0 -5.1181,-2.8149 0,-1.5354 1.2796,-2.3032 1.5354,-0.7677 4.6062,-1.7913 5.6299,-1.7913 8.1889,-3.3267 2.815,-1.7914 2.815,-6.3976 v -55.0192 q 0,-8.189 -2.0473,-12.7952 -1.7913,-4.6063 -7.6771,-5.6299 -2.3031,-0.5118 -2.3031,-3.3267 0,-2.5591 2.0472,-3.0709 6.9094,-1.7913 11.0039,-3.5826 4.0944,-2.0473 9.4684,-5.8858 l 5.6299,-3.8386 q 0.2559,0 0.7677,-0.5118 0.7677,-0.5118 1.5354,-0.5118 0.5118,0 1.0236,0.5118 0.5118,0.5118 0.5118,1.2796 l -0.5118,5.3739 q -0.2559,2.0473 -0.5118,5.1181 -0.2559,2.8149 -0.2559,5.8858 0,2.559 0.5118,3.0708 h 0.5118 q 17.6574,-17.1455 39.921,-17.1455 9.4684,0 15.6101,4.0944 6.1417,4.0945 9.9802,13.5629 h 0.7677 q 19.9605,-17.6573 41.7123,-17.6573 11.7715,0 18.6809,10.7479 6.9094,10.4921 6.9094,24.8227 v 54.5074 q 0,4.6062 2.559,6.3976 2.815,1.5354 8.4449,3.3267 3.0708,1.0236 4.3503,1.7913 1.5354,0.7678 1.5354,2.3032 0,1.5354 -1.2795,2.0472 -1.0236,0.7677 -3.8385,0.7677 -6.9094,0 -10.748,-0.7677 -5.118,-0.5118 -9.4684,-0.5118 -4.6063,0 -9.7243,0.5118 -4.6063,0.7677 -11.5157,0.7677 -5.118,0 -5.118,-2.8149 0,-1.7914 1.2795,-2.5591 1.5354,-0.7677 4.6062,-1.5354 5.374,-1.2795 8.1889,-3.0708 2.815,-2.0473 2.815,-6.6535 v -53.7397 q 0,-9.4685 -6.1417,-16.8897 -6.1417,-7.4212 -14.3306,-7.4212 -13.5629,0 -22.2636,6.9094 -7.1653,5.6299 -7.1653,18.4251 v 52.7161 q 0,4.6062 3.0709,6.6535 3.0708,1.7913 8.4448,3.0708 5.8857,1.2795 5.8857,4.0945 0,2.8149 -5.118,2.8149 -6.9094,0 -11.2598,-0.7677 -5.6299,-0.5118 -9.7243,-0.5118 -4.6063,0 -9.7243,0.5118 -4.6063,0.7677 -11.5157,0.7677 -5.1181,0 -5.1181,-2.8149 0,-1.5354 1.0237,-2.0473 1.2795,-0.7677 2.559,-1.2795 1.5354,-0.5118 2.3031,-0.7677 5.8858,-1.7913 8.4448,-3.3267 2.815,-1.7914 2.815,-6.3976 v -53.7397 q 0,-9.4685 -6.1417,-16.8897 -6.1417,-7.4212 -14.3306,-7.4212 -13.5629,0 -22.2636,6.9094 -6.9094,5.1181 -6.9094,18.4251 v 52.7161 q 0,4.6062 2.559,6.3976 2.815,1.5354 8.4449,3.3267 0.7677,0.2559 2.3031,0.7677 1.7913,0.5118 2.559,1.2795 1.0236,0.7678 1.0236,2.0473 0,2.8149 -5.118,2.8149 -6.6535,0 -11.0039,-0.7677 -5.6299,-0.5118 -9.7243,-0.5118 -4.0945,0 -9.7243,0.5118 -4.0945,0.7677 -11.0039,0.7677 z"
           inkscape:connector-curvature="0" />
        <path
           id="path830"
           style="font-size:255.90341187px;fill:#333333;stroke-width:0.9596377"
           d="m -1575.4458,1501.2358 q -14.0747,0 -25.8463,-6.6534 -11.5156,-6.6535 -18.425,-18.4251 -6.6535,-11.7715 -6.6535,-26.358 0,-14.0747 7.4212,-27.6376 7.6771,-13.5629 20.4723,-22.0077 13.0511,-8.4448 28.1494,-8.4448 14.5865,0 26.6139,7.1653 12.0275,6.9094 18.9369,18.9368 7.1653,11.7716 7.1653,25.3345 0,15.3542 -6.6535,28.6612 -6.6535,13.3069 -19.7046,21.4958 -13.0511,7.933 -31.4761,7.933 z m 5.374,-7.6771 q 19.1927,0 26.358,-14.0746 5.1181,-9.9803 5.1181,-30.1966 0,-12.2834 -4.6063,-23.7991 -4.6062,-11.5156 -12.7952,-18.6809 -8.1889,-7.1653 -18.6809,-7.1653 -7.4212,0 -12.7952,2.3031 -5.3739,2.3032 -9.7243,7.933 -4.6063,5.8858 -6.3976,14.5865 -1.7913,8.4448 -1.7913,19.4487 0,12.7952 4.6063,24.3108 4.6062,11.2598 12.5392,18.4251 8.1889,6.9093 18.1692,6.9093 z"
           inkscape:connector-curvature="0" />
        <path
           id="path832"
           style="font-size:255.90341187px;fill:#333333;stroke-width:0.9596377"
           d="m -1497.6152,1498.4209 q -5.1181,0 -5.1181,-2.8149 0,-1.7914 1.2796,-2.3032 1.2795,-0.7677 4.6062,-1.7913 5.374,-1.2795 8.1889,-3.0708 2.815,-2.0473 2.815,-6.6535 v -55.0192 q 0,-8.189 -1.7914,-12.5393 -1.7913,-4.3504 -7.6771,-5.8858 -2.559,-0.7677 -2.559,-3.3267 0,-2.815 2.3031,-3.0709 7.933,-2.0472 13.307,-5.118 5.6299,-3.0709 12.2834,-7.9331 1.7913,-1.2795 2.8149,-1.2795 1.2795,0 1.2795,1.7914 l -0.5118,5.3739 q -0.2559,2.0473 -0.5118,5.1181 -0.2559,2.8149 -0.2559,5.8858 0,2.559 0.5118,3.0708 9.2125,-8.7007 19.1928,-12.7952 9.9802,-4.3503 22.0077,-4.3503 12.2833,0 20.4722,10.2361 8.4449,10.2362 8.4449,25.3345 v 54.5074 q 0,4.6062 2.559,6.3976 2.8149,1.5354 8.4448,3.3267 3.0708,1.0236 4.3504,2.0472 1.5354,0.7678 1.5354,2.5591 0,2.3031 -5.1181,2.3031 -6.9094,0 -11.0038,-0.7677 -5.1181,-0.5118 -9.4685,-0.5118 -4.0944,0 -9.7243,0.5118 -4.0944,0.7677 -11.2597,0.7677 -5.1181,0 -5.1181,-2.3031 0,-1.7913 1.2795,-2.5591 1.5354,-1.0236 4.6063,-2.0472 5.6298,-1.7913 8.1889,-3.3267 2.8149,-1.7914 2.8149,-6.3976 v -53.7397 q 0,-11.0039 -6.3976,-17.4015 -6.1416,-6.3975 -16.6337,-6.6535 -15.866,0 -28.4053,10.2362 -2.0472,2.0472 -2.0472,5.8858 v 61.6727 q 0,4.6062 2.8149,6.6535 2.815,1.7913 8.189,3.0708 3.0708,0.7677 4.3503,1.7913 1.5354,0.7678 1.5354,2.3032 0,2.8149 -5.118,2.8149 -6.6535,0 -11.0039,-0.7677 -5.6299,-0.5118 -9.7243,-0.5118 -4.0945,0 -9.7243,0.5118 -4.0945,0.7677 -11.0039,0.7677 z"
           inkscape:connector-curvature="0" />
        <path
           id="path834"
           style="font-size:255.90341187px;fill:#333333;stroke-width:0.9596377"
           d="m -1362.6662,1498.4209 q -5.118,0 -5.118,-2.8149 0,-1.7914 1.2795,-2.5591 1.5354,-0.7677 4.6063,-1.5354 5.8857,-1.5354 8.4448,-3.3267 2.559,-2.0473 2.559,-6.3976 v -55.5311 q 0,-16.8896 -11.5156,-18.6809 -2.5591,-0.2559 -2.5591,-3.3267 0,-2.815 2.3031,-3.0709 15.6102,-3.5826 26.8699,-12.7952 2.3031,-1.7913 3.5827,-1.7913 1.5354,0 1.5354,1.2795 0,2.815 -0.7677,9.7244 -0.2559,3.0708 -1.0237,11.5156 -0.5118,8.1889 -0.5118,13.307 v 59.3696 q 0,4.0944 2.5591,6.1417 2.8149,2.0472 8.4448,3.5826 3.0708,0.7677 4.3503,1.5354 1.5355,0.7677 1.5355,2.5591 0,2.8149 -5.1181,2.8149 -6.3976,0 -10.7479,-0.7677 -5.6299,-0.5118 -9.9803,-0.5118 -4.0944,0 -9.7243,0.5118 -4.0945,0.7677 -11.0039,0.7677 z m 20.4723,-132.8139 q -5.374,0 -9.2125,-3.5826 -3.5827,-3.8386 -3.5827,-9.2125 0,-5.6299 3.5827,-9.2126 3.8385,-3.8385 9.2125,-3.8385 5.6299,0 9.2125,3.8385 3.8386,3.5827 3.8386,9.2126 0,5.3739 -3.8386,9.2125 -3.5826,3.5826 -9.2125,3.5826 z"
           inkscape:connector-curvature="0" />
        <path
           id="path836"
           style="font-size:255.90341187px;fill:#333333;stroke-width:0.9596377"
           d="m -1256.942,1501.4917 q -12.7952,0 -23.2872,-6.3975 -10.2362,-6.6535 -16.3779,-17.9133 -5.8857,-11.5156 -5.8857,-25.5903 0,-16.3778 7.1653,-29.9407 7.4212,-13.8188 19.7045,-21.7518 12.2834,-8.1889 27.1258,-8.1889 16.6337,0 29.173,8.9566 3.0708,2.3031 3.0708,4.8622 0,3.3267 -3.8385,6.9094 -3.8386,3.5826 -7.1653,3.5826 -1.2796,0 -2.5591,-0.7677 -1.2795,-1.0236 -2.8149,-2.0472 -6.3976,-4.8622 -13.0511,-8.4448 -6.6535,-3.5827 -11.0038,-3.5827 -12.5393,0 -20.4723,11.7716 -7.6771,11.7715 -7.6771,30.4525 0,11.7715 5.1181,21.7518 5.118,9.7243 14.0746,15.3542 8.9567,5.6298 19.7046,5.6298 7.4212,0 12.7952,-2.3031 5.374,-2.559 11.5156,-8.7007 1.2796,-1.2795 2.5591,-1.2795 1.2795,0 2.0472,1.0236 0.7677,1.0236 0.7677,2.559 0,2.815 -3.8385,7.933 -6.1417,7.933 -15.6102,12.0275 -9.4684,4.0944 -21.2399,4.0944 z"
           inkscape:connector-curvature="0" />
        <path
           id="path838"
           style="font-size:255.90341187px;fill:#333333;stroke-width:0.9596377"
           d="m -1181.5465,1501.2358 q -4.3503,0 -9.2125,-3.5826 -4.8622,-3.3267 -8.1889,-8.4448 -3.0709,-5.374 -3.0709,-9.9802 0,-7.9331 4.0945,-12.5393 4.3504,-4.6063 14.0747,-8.7007 l 26.1021,-10.748 q 4.8622,-2.0472 5.8858,-3.5826 1.0236,-1.5354 1.2795,-6.6535 l 0.5118,-16.3778 q 0.2559,-6.9094 -3.8385,-11.5157 -4.0945,-4.8621 -11.2598,-4.8621 -3.8385,0 -7.6771,1.2795 -3.8385,1.2795 -6.3976,3.3267 -2.559,1.7913 -2.559,7.4212 l 0.2559,4.6063 q 0,2.0472 -6.6535,5.6298 -6.3976,3.3268 -10.2361,3.3268 -1.2795,0 -2.0472,-0.5118 -0.7677,-0.7677 -0.7677,-1.7913 0,-4.0945 2.559,-8.7008 2.8149,-4.8621 7.6771,-8.9566 8.7007,-7.933 19.4486,-13.051 11.0039,-5.1181 18.681,-5.1181 9.2125,0 15.0983,6.6535 6.1417,6.3976 5.8858,16.1219 l -1.2795,61.4168 q -0.2559,5.374 2.3031,8.7007 2.559,3.3268 6.9094,3.3268 6.3976,0 9.4684,-2.815 1.2795,-1.2795 2.0472,-1.2795 1.2796,0 2.0473,0.7677 0.7677,0.7677 0.7677,2.0473 0,1.0236 -0.7677,2.8149 -0.7677,1.5354 -2.0473,2.8149 -4.0944,4.0945 -8.9566,6.3976 -4.6062,2.559 -8.7007,2.559 -11.7716,0 -18.6809,-13.3069 h -0.7678 q -8.4448,6.9094 -16.1219,9.9802 -7.6771,3.3267 -15.866,3.3267 z m 12.0275,-12.2833 q 8.9566,0 15.0983,-6.1417 1.5354,-1.5354 2.3031,-3.8386 0.7677,-2.3031 1.0236,-6.6534 l 0.5118,-12.5393 v -1.5354 q 0,-2.0473 -0.5118,-2.815 -0.5118,-1.0236 -1.7913,-1.0236 -1.5354,0 -5.1181,1.2795 -12.7951,4.6063 -18.425,9.7244 -5.6299,5.118 -5.6299,9.9802 0,6.3976 3.5827,9.9802 3.8385,3.5827 8.9566,3.5827 z"
           inkscape:connector-curvature="0" />
      </g>
    </g>
  </g>
</svg>
