<?xml version="1.0" encoding="UTF-8" standalone="no"?>
<!-- Created with Inkscape (http://www.inkscape.org/) -->

<svg
   xmlns:dc="http://purl.org/dc/elements/1.1/"
   xmlns:cc="http://creativecommons.org/ns#"
   xmlns:rdf="http://www.w3.org/1999/02/22-rdf-syntax-ns#"
   xmlns:svg="http://www.w3.org/2000/svg"
   xmlns="http://www.w3.org/2000/svg"
   xmlns:sodipodi="http://sodipodi.sourceforge.net/DTD/sodipodi-0.dtd"
   xmlns:inkscape="http://www.inkscape.org/namespaces/inkscape"
   width="500"
   height="80"
   viewBox="0 0 132.29168 21.166666"
   version="1.1"
   id="svg8"
   inkscape:version="0.92.4 5da689c313, 2019-01-14"
   sodipodi:docname="pooch-logo.svg"
   inkscape:export-filename="readme-banner.png"
   inkscape:export-xdpi="39.080002"
   inkscape:export-ydpi="39.080002">
  <defs
     id="defs2" />
  <sodipodi:namedview
     id="base"
     pagecolor="#ffffff"
     bordercolor="#666666"
     borderopacity="1.0"
     inkscape:pageopacity="0.0"
     inkscape:pageshadow="2"
     inkscape:zoom="2.8284272"
     inkscape:cx="109.74087"
     inkscape:cy="-70.48094"
     inkscape:document-units="mm"
     inkscape:current-layer="layer1"
     showgrid="false"
     fit-margin-top="0"
     fit-margin-left="0"
     fit-margin-right="0"
     fit-margin-bottom="0"
     inkscape:window-width="1576"
     inkscape:window-height="1774"
     inkscape:window-x="1609"
     inkscape:window-y="11"
     inkscape:window-maximized="0"
     units="px" />
  <metadata
     id="metadata5">
    <rdf:RDF>
      <cc:Work
         rdf:about="">
        <dc:format>image/svg+xml</dc:format>
        <dc:type
           rdf:resource="http://purl.org/dc/dcmitype/StillImage" />
        <dc:title></dc:title>
      </cc:Work>
    </rdf:RDF>
  </metadata>
  <g
     inkscape:label="Layer 1"
     inkscape:groupmode="layer"
     id="layer1"
     transform="translate(2407.4105,-1480.325)">
    <g
       aria-label="Pooch"
       style="font-style:normal;font-variant:normal;font-weight:normal;font-stretch:normal;font-size:28.29571724px;line-height:1.29999995;font-family:'EB Garamond';-inkscape-font-specification:'EB Garamond';text-align:center;letter-spacing:0px;word-spacing:0px;text-anchor:middle;fill:#333333;fill-opacity:1;stroke:none;stroke-width:0.70739293"
       id="text820"
       transform="matrix(0.84413996,0,0,0.84413996,-364.90945,232.37319)">
      <path
         d="m -2373.8965,1500.8119 q -0.8206,0 -0.8206,-0.3113 0,-0.198 0.2264,-0.3112 0.2263,-0.1132 0.7074,-0.1981 1.1035,-0.1981 1.5845,-0.6508 0.481,-0.481 0.481,-1.4997 V 1485.9 q 0,-1.3581 -0.3678,-2.009 -0.3396,-0.6508 -1.3582,-0.8205 -0.9338,-0.1698 -0.9338,-0.5659 0,-0.3113 0.8206,-0.3113 1.2167,0 1.5846,0.028 h 1.1884 q 0.4244,0 0.9904,-0.028 0.5659,-0.028 0.8488,-0.057 0.7357,-0.085 1.3016,-0.085 3.254,0 5.2064,1.3582 1.9524,1.3299 1.9524,3.6785 0,1.7826 -0.7074,3.254 -0.679,1.4431 -2.1221,2.2919 -1.4148,0.8489 -3.5087,0.8489 -0.5659,0 -0.9338,-0.1698 -0.3395,-0.1698 -0.3395,-0.3678 0,-0.1132 0.1415,-0.2547 0.1697,-0.1415 0.3112,-0.1415 0.085,0 0.4245,0.028 0.3678,0.028 0.8771,0.028 1.6695,0 2.5466,-1.3865 0.8772,-1.3864 0.8772,-3.9331 0,-2.1787 -1.3016,-3.3106 -1.2733,-1.1318 -3.4238,-1.1318 -1.8109,0 -1.8109,1.1884 v 13.4971 q 0,1.0752 0.4244,1.6694 0.4528,0.5942 1.4714,0.7923 0.481,0.085 0.7074,0.1981 0.2264,0.1132 0.2264,0.3112 0,0.3113 -0.8206,0.3113 -0.9055,0 -1.6412,-0.1132 -0.5093,-0.085 -1.1318,-0.085 -0.5093,0 -1.0469,0.057 -0.5094,0.028 -0.7357,0.028 -1.1318,0.1132 -1.8958,0.1132 z"
         style="stroke-width:0.70739293;fill:#333333"
         id="path822"
         inkscape:connector-curvature="0" />
      <path
         d="m -2354.5719,1501.0666 q -1.5562,0 -2.8578,-0.7357 -1.2734,-0.7357 -2.0373,-2.0373 -0.7357,-1.3016 -0.7357,-2.9145 0,-1.5563 0.8205,-3.0559 0.8489,-1.4997 2.2637,-2.4335 1.4431,-0.9337 3.1125,-0.9337 1.6129,0 2.9428,0.7923 1.3299,0.7639 2.0939,2.0938 0.7923,1.3016 0.7923,2.8013 0,1.6978 -0.7357,3.1691 -0.7357,1.4714 -2.1788,2.3769 -1.4431,0.8772 -3.4804,0.8772 z m 0.5942,-0.8489 q 2.1222,0 2.9145,-1.5563 0.5659,-1.1035 0.5659,-3.3389 0,-1.3582 -0.5093,-2.6315 -0.5093,-1.2733 -1.4148,-2.0656 -0.9055,-0.7922 -2.0656,-0.7922 -0.8206,0 -1.4148,0.2546 -0.5942,0.2547 -1.0752,0.8772 -0.5093,0.6508 -0.7074,1.6128 -0.1981,0.9338 -0.1981,2.1505 0,1.4148 0.5093,2.6881 0.5094,1.245 1.3865,2.0373 0.9055,0.764 2.009,0.764 z"
         style="stroke-width:0.70739293;fill:#333333"
         id="path824"
         inkscape:connector-curvature="0" />
      <path
         d="m -2340.5898,1501.0666 q -1.5563,0 -2.8579,-0.7357 -1.2733,-0.7357 -2.0373,-2.0373 -0.7357,-1.3016 -0.7357,-2.9145 0,-1.5563 0.8206,-3.0559 0.8489,-1.4997 2.2637,-2.4335 1.4431,-0.9337 3.1125,-0.9337 1.6129,0 2.9428,0.7923 1.3299,0.7639 2.0938,2.0938 0.7923,1.3016 0.7923,2.8013 0,1.6978 -0.7357,3.1691 -0.7357,1.4714 -2.1787,2.3769 -1.4431,0.8772 -3.4804,0.8772 z m 0.5942,-0.8489 q 2.1222,0 2.9145,-1.5563 0.5659,-1.1035 0.5659,-3.3389 0,-1.3582 -0.5094,-2.6315 -0.5093,-1.2733 -1.4147,-2.0656 -0.9055,-0.7922 -2.0656,-0.7922 -0.8206,0 -1.4148,0.2546 -0.5942,0.2547 -1.0753,0.8772 -0.5093,0.6508 -0.7073,1.6128 -0.1981,0.9338 -0.1981,2.1505 0,1.4148 0.5093,2.6881 0.5093,1.245 1.3865,2.0373 0.9055,0.764 2.009,0.764 z"
         style="stroke-width:0.70739293;fill:#333333"
         id="path826"
         inkscape:connector-curvature="0" />
      <path
         d="m -2327.202,1501.0948 q -1.4147,0 -2.5749,-0.7073 -1.1318,-0.7357 -1.8109,-1.9807 -0.6508,-1.2734 -0.6508,-2.8296 0,-1.8109 0.7923,-3.3106 0.8206,-1.528 2.1788,-2.4052 1.3581,-0.9054 2.9993,-0.9054 1.8392,0 3.2257,0.9903 0.3396,0.2547 0.3396,0.5377 0,0.3678 -0.4245,0.7639 -0.4244,0.3962 -0.7923,0.3962 -0.1414,0 -0.2829,-0.085 -0.1415,-0.1132 -0.3113,-0.2264 -0.7074,-0.5376 -1.4431,-0.9337 -0.7356,-0.3962 -1.2167,-0.3962 -1.3865,0 -2.2636,1.3016 -0.8489,1.3016 -0.8489,3.3672 0,1.3016 0.5659,2.4052 0.5659,1.0752 1.5563,1.6977 0.9903,0.6225 2.1788,0.6225 0.8205,0 1.4147,-0.2547 0.5942,-0.2829 1.2733,-0.962 0.1415,-0.1415 0.283,-0.1415 0.1415,0 0.2264,0.1132 0.085,0.1132 0.085,0.2829 0,0.3113 -0.4245,0.8772 -0.6791,0.8772 -1.726,1.3299 -1.047,0.4527 -2.3486,0.4527 z"
         style="stroke-width:0.70739293;fill:#333333"
         id="path828"
         inkscape:connector-curvature="0" />
      <path
         d="m -2320.6303,1500.7553 q -0.5659,0 -0.5659,-0.3113 0,-0.1697 0.1415,-0.2546 0.1415,-0.085 0.5093,-0.1981 0.5659,-0.1698 0.8772,-0.3961 0.3112,-0.2547 0.3395,-0.764 v -14.1762 q 0,-1.8109 -1.245,-2.0373 -0.2547,-0.056 -0.2547,-0.3961 0,-0.2547 0.2264,-0.3395 2.2354,-0.7074 3.1408,-1.1036 0.1132,-0.057 0.1698,-0.057 0.1981,0 0.1981,0.1981 0,0.1415 -0.1415,0.8772 -0.1132,0.7074 -0.1132,2.971 v 4.9235 q 0,0.4244 0.028,0.6508 0.057,0.198 0.1698,0.3961 2.4051,-1.7826 4.3009,-1.7826 1.3865,0 2.292,1.1035 0.9337,1.1035 0.9337,2.7447 v 5.9421 q 0,0.9055 1.1602,1.245 0.3395,0.085 0.481,0.1981 0.1698,0.085 0.1698,0.2546 0,0.3113 -0.5659,0.3113 -0.7074,0 -1.1885,-0.085 -0.5659,-0.057 -1.0186,-0.057 -0.4527,0 -1.0187,0.057 -0.4527,0.085 -1.1884,0.085 -0.5659,0 -0.5659,-0.3113 0,-0.1697 0.1132,-0.2263 0.1415,-0.085 0.5376,-0.2264 0.5093,-0.1698 0.7923,-0.4527 0.3112,-0.283 0.3112,-0.7923 v -5.7723 q 0,-0.6791 -0.3961,-1.245 -0.3961,-0.5942 -1.0186,-0.9338 -0.5942,-0.3678 -1.2168,-0.3678 -0.5942,0 -1.3016,0.1697 -0.6791,0.1698 -1.0469,0.4528 -0.4527,0.3678 -0.6225,0.7922 -0.1415,0.3962 -0.1415,1.2451 v 5.744 q 0.028,0.5093 0.3113,0.764 0.2829,0.2263 0.7923,0.3961 0.3112,0.085 0.4527,0.1981 0.1698,0.085 0.1698,0.2546 0,0.1698 -0.1415,0.2264 -0.1132,0.085 -0.4245,0.085 -0.7356,0 -1.1601,-0.085 -0.5093,-0.057 -0.9903,-0.057 -0.4528,0 -1.0753,0.057 -0.4527,0.085 -1.2167,0.085 z"
         style="stroke-width:0.70739293;fill:#333333"
         id="path830"
         inkscape:connector-curvature="0" />
    </g>
  </g>
</svg>
