<?xml version="1.0" encoding="UTF-8" standalone="no"?>
<!-- Created with Inkscape (http://www.inkscape.org/) -->

<svg
   xmlns:dc="http://purl.org/dc/elements/1.1/"
   xmlns:cc="http://creativecommons.org/ns#"
   xmlns:rdf="http://www.w3.org/1999/02/22-rdf-syntax-ns#"
   xmlns:svg="http://www.w3.org/2000/svg"
   xmlns="http://www.w3.org/2000/svg"
   xmlns:sodipodi="http://sodipodi.sourceforge.net/DTD/sodipodi-0.dtd"
   xmlns:inkscape="http://www.inkscape.org/namespaces/inkscape"
   width="500"
   height="80"
   viewBox="0 0 132.29168 21.166666"
   version="1.1"
   id="svg8"
   inkscape:version="0.92.4 5da689c313, 2019-01-14"
   sodipodi:docname="rockhound-logo.svg"
   inkscape:export-filename="readme-banner.png"
   inkscape:export-xdpi="39.080002"
   inkscape:export-ydpi="39.080002">
  <defs
     id="defs2" />
  <sodipodi:namedview
     id="base"
     pagecolor="#ffffff"
     bordercolor="#666666"
     borderopacity="1.0"
     inkscape:pageopacity="0.0"
     inkscape:pageshadow="2"
     inkscape:zoom="3.0136891"
     inkscape:cx="34.265701"
     inkscape:cy="-0.054434295"
     inkscape:document-units="mm"
     inkscape:current-layer="layer1"
     showgrid="false"
     fit-margin-top="0"
     fit-margin-left="0"
     fit-margin-right="0"
     fit-margin-bottom="0"
     inkscape:window-width="1576"
     inkscape:window-height="1774"
     inkscape:window-x="1609"
     inkscape:window-y="11"
     inkscape:window-maximized="0"
     units="px" />
  <metadata
     id="metadata5">
    <rdf:RDF>
      <cc:Work
         rdf:about="">
        <dc:format>image/svg+xml</dc:format>
        <dc:type
           rdf:resource="http://purl.org/dc/dcmitype/StillImage" />
        <dc:title></dc:title>
      </cc:Work>
    </rdf:RDF>
  </metadata>
  <g
     inkscape:label="Layer 1"
     inkscape:groupmode="layer"
     id="layer1"
     transform="translate(2407.4105,-1480.325)">
    <g
       aria-label="RockHound"
       style="font-style:normal;font-variant:normal;font-weight:normal;font-stretch:normal;font-size:26.880867px;line-height:1.29999995;font-family:'EB Garamond';-inkscape-font-specification:'EB Garamond';text-align:center;letter-spacing:0px;word-spacing:0px;text-anchor:middle;fill:#333333;fill-opacity:1;stroke:none;stroke-width:0.67202169"
       id="text834"
       transform="matrix(0.88121236,0,0,0.88121236,-278.11341,177.10178)">
      <path
         d="m -2390.9325,1500.6661 q -1.2366,0 -2.1505,-0.3226 -0.8871,-0.3226 -1.5591,-1.129 -1.2365,-1.5322 -2.0429,-2.6075 -0.8065,-1.1021 -2.043,-3.1181 -0.4032,-0.6721 -1.1559,-1.0484 -0.887,-0.4301 -2.1236,-0.5645 h -0.054 q -0.3495,0 -0.3495,0.5376 v 4.7311 q 0,1.9892 1.801,2.3117 0.457,0.081 0.6721,0.1882 0.215,0.1075 0.215,0.2957 0,0.2957 -0.7795,0.2957 -0.8602,0 -1.5591,-0.1076 -0.4839,-0.081 -1.0753,-0.081 -0.4838,0 -0.9945,0.054 -0.4839,0.027 -0.6989,0.027 -1.0753,0.1076 -1.8011,0.1076 -0.7795,0 -0.7795,-0.2957 0,-0.1882 0.215,-0.2957 0.2151,-0.1075 0.6721,-0.1882 1.0483,-0.1881 1.5053,-0.6182 0.457,-0.457 0.457,-1.4247 v -11.4513 q 0,-1.129 -0.1076,-1.5859 -0.081,-0.4839 -0.4301,-0.6989 -0.3225,-0.2151 -1.1021,-0.2957 -0.4301,-0.027 -0.672,-0.1882 -0.215,-0.1613 -0.215,-0.3495 0,-0.2956 0.7795,-0.2956 1.1559,0 1.5053,0.027 h 1.129 q 0.4032,0 1.2097,-0.054 1.4515,-0.081 1.8816,-0.081 2.9569,0 4.4891,1.129 1.5591,1.1021 1.5591,3.2795 0,2.9031 -3.1719,4.516 -0.081,0.027 -0.081,0.1344 0,0.081 0.081,0.215 1.6935,2.5537 2.715,3.9246 1.0483,1.371 2.7418,2.9032 0.6451,0.5645 1.3172,0.7258 0.672,0.1612 1.7741,0.1612 0.4032,0 0.4032,0.2957 0,0.5108 -0.7258,0.7258 -0.6989,0.2151 -1.4515,0.2151 z m -10.0535,-9.4083 q 1.1828,0 2.0967,-0.5377 0.9409,-0.5645 1.4247,-1.4784 0.5107,-0.914 0.5107,-1.9623 0,-1.9086 -0.8064,-2.9569 -0.8064,-1.0752 -3.145,-1.0752 -0.8333,0 -1.129,0.5376 -0.2688,0.5107 -0.3226,1.9623 -0.054,1.8279 -0.054,4.5697 0,0.6183 0.3226,0.7796 0.3226,0.1613 1.1021,0.1613 z"
         style="stroke-width:0.67202169;fill:#333333"
         id="path836"
         inkscape:connector-curvature="0" />
      <path
         d="m -2382.6024,1500.4779 q -1.4785,0 -2.715,-0.6989 -1.2096,-0.6989 -1.9354,-1.9354 -0.6989,-1.2366 -0.6989,-2.7688 0,-1.4784 0.7795,-2.9031 0.8065,-1.4247 2.1505,-2.3117 1.3709,-0.8871 2.9569,-0.8871 1.5322,0 2.7956,0.7526 1.2634,0.7258 1.9892,1.9892 0.7527,1.2366 0.7527,2.6612 0,1.6129 -0.6989,3.0107 -0.6989,1.3978 -2.0699,2.258 -1.3709,0.8333 -3.3063,0.8333 z m 0.5645,-0.8064 q 2.0161,0 2.7687,-1.4785 0.5376,-1.0483 0.5376,-3.1719 0,-1.2903 -0.4838,-2.4999 -0.4839,-1.2097 -1.3441,-1.9623 -0.8602,-0.7527 -1.9623,-0.7527 -0.7795,0 -1.344,0.2419 -0.5645,0.2419 -1.0215,0.8333 -0.4838,0.6183 -0.672,1.5322 -0.1882,0.8871 -0.1882,2.043 0,1.344 0.4839,2.5537 0.4838,1.1827 1.3171,1.9354 0.8602,0.7258 1.9086,0.7258 z"
         style="stroke-width:0.67202169;fill:#333333"
         id="path838"
         inkscape:connector-curvature="0" />
      <path
         d="m -2369.884,1500.5048 q -1.344,0 -2.4461,-0.672 -1.0753,-0.6989 -1.7204,-1.8817 -0.6183,-1.2096 -0.6183,-2.6881 0,-1.7204 0.7527,-3.1451 0.7795,-1.4515 2.0698,-2.2848 1.2903,-0.8602 2.8494,-0.8602 1.7472,0 3.0644,0.9408 0.3226,0.2419 0.3226,0.5108 0,0.3494 -0.4032,0.7257 -0.4032,0.3764 -0.7527,0.3764 -0.1344,0 -0.2688,-0.081 -0.1344,-0.1075 -0.2957,-0.215 -0.672,-0.5108 -1.3709,-0.8871 -0.6989,-0.3763 -1.1559,-0.3763 -1.3172,0 -2.1505,1.2365 -0.8064,1.2365 -0.8064,3.1988 0,1.2365 0.5376,2.2849 0.5376,1.0215 1.4785,1.6128 0.9408,0.5914 2.0698,0.5914 0.7795,0 1.344,-0.2419 0.5645,-0.2688 1.2097,-0.914 0.1344,-0.1344 0.2688,-0.1344 0.1344,0 0.215,0.1076 0.081,0.1075 0.081,0.2688 0,0.2957 -0.4032,0.8333 -0.6452,0.8333 -1.6398,1.2634 -0.9946,0.4301 -2.2311,0.4301 z"
         style="stroke-width:0.67202169;fill:#333333"
         id="path840"
         inkscape:connector-curvature="0" />
      <path
         d="m -2363.5603,1500.1822 q -0.6182,0 -0.6182,-0.2957 0,-0.1613 0.1075,-0.215 0.1344,-0.081 0.2688,-0.1344 0.1613,-0.054 0.2419,-0.081 0.5377,-0.1613 0.8334,-0.3763 0.3225,-0.2419 0.3225,-0.7258 v -13.4673 q 0,-0.9408 -0.2688,-1.3709 -0.2688,-0.4301 -0.9408,-0.5914 -0.2419,-0.054 -0.2419,-0.3495 0,-0.2688 0.215,-0.3225 0.914,-0.2151 1.5053,-0.4301 0.6183,-0.2151 1.4516,-0.5914 0.1613,-0.081 0.2419,-0.081 0.1613,0 0.1613,0.2419 0,0.1881 -0.1344,1.1021 -0.1075,0.8871 -0.1075,2.4999 v 8.8169 q 0,0.242 0.1344,0.242 0.3494,0 0.9677,-0.5376 1.8279,-1.586 2.8494,-2.7688 0.2419,-0.2688 0.2419,-0.4032 0,-0.2419 -0.6989,-0.4032 -0.1882,-0.054 -0.2688,-0.1075 -0.054,-0.054 -0.054,-0.1613 0,-0.1344 0.1613,-0.2151 0.1613,-0.1075 0.4301,-0.1075 h 1.3172 q 0.3763,0 1.5053,-0.1882 0.6183,-0.1344 0.9408,-0.1344 0.3764,0 0.3764,0.2689 0,0.2956 -0.6721,0.4838 -0.7526,0.2151 -1.7741,0.8333 -0.2419,0.1613 -1.344,1.0753 -1.0753,0.887 -2.0968,1.7741 -0.1612,0.1613 -0.1612,0.2688 0,0.1075 0.081,0.1882 0.914,1.129 2.1236,2.4192 1.2365,1.2903 1.8279,1.8279 0.4032,0.4033 0.9677,0.7527 0.5914,0.3226 1.0484,0.4839 0.1075,0.027 0.3225,0.1075 0.242,0.081 0.3495,0.1613 0.1344,0.081 0.1344,0.215 0,0.2957 -0.5376,0.2957 l -2.1774,-0.027 q -1.8279,-0.054 -2.8494,-0.054 -0.4838,0 -0.4838,-0.242 0,-0.2688 0.457,-0.4301 0.3494,-0.1075 0.5376,-0.2419 0.1881,-0.1613 0.1881,-0.3763 0,-0.1344 -0.1881,-0.3764 l -3.2526,-3.6826 q -0.1613,-0.1882 -0.2688,-0.1882 -0.1344,0 -0.1344,0.1882 -0.027,0.5107 -0.027,1.7203 0,1.2634 0.027,1.8817 0,0.5107 0.2419,0.7527 0.2419,0.215 0.6989,0.3494 0.081,0.027 0.2419,0.081 0.1882,0.054 0.2688,0.1344 0.1076,0.081 0.1076,0.215 0,0.1613 -0.2151,0.2151 -0.215,0.081 -0.4032,0.081 -0.672,0 -0.9946,-0.081 -0.4301,-0.054 -0.887,-0.054 -0.457,0 -0.9946,0.054 -0.4033,0.081 -1.1022,0.081 z"
         style="stroke-width:0.67202169;fill:#333333"
         id="path842"
         inkscape:connector-curvature="0" />
      <path
         d="m -2350.3147,1500.236 q -0.3495,0 -0.5645,-0.1076 -0.2151,-0.081 -0.2151,-0.2419 0,-0.1613 0.1882,-0.2419 0.1882,-0.1075 0.672,-0.1882 0.9946,-0.1881 1.3172,-0.5914 0.3226,-0.4301 0.3226,-1.4246 v -12.1502 q 0,-0.6989 -0.081,-1.0215 -0.081,-0.3494 -0.3763,-0.5645 -0.2957,-0.215 -0.9677,-0.3225 -0.457,-0.081 -0.672,-0.1882 -0.2151,-0.1075 -0.2151,-0.2957 0,-0.3494 0.7796,-0.3494 0.8064,0 1.6128,0.054 l 1.1559,0.027 1.2096,-0.027 q 0.8602,-0.054 1.6398,-0.054 0.7795,0 0.7795,0.3494 0,0.1882 -0.215,0.2957 -0.2151,0.1075 -0.6721,0.1882 -0.9946,0.1881 -1.4247,0.6451 -0.4032,0.457 -0.4032,1.2634 v 5.2955 q 0,0.242 0.3764,0.242 h 9.9728 q 0.1881,0 0.1881,-0.3226 v -5.2418 q 0,-0.7795 -0.4032,-1.2365 -0.4032,-0.4839 -1.3709,-0.6451 -0.457,-0.081 -0.672,-0.1882 -0.2151,-0.1075 -0.2151,-0.2957 0,-0.1613 0.2151,-0.2419 0.215,-0.1075 0.5645,-0.1075 0.7526,0 1.7204,0.054 l 1.3978,0.027 0.9408,-0.027 q 0.6989,-0.054 1.5053,-0.054 0.7796,0 0.7796,0.3494 0,0.1882 -0.2151,0.2957 -0.215,0.1075 -0.672,0.1882 -0.914,0.1612 -1.1828,0.5913 -0.2419,0.4033 -0.2419,1.2903 v 12.1502 q 0,1.0483 0.2688,1.4784 0.2688,0.4032 1.2365,0.5645 0.4839,0.081 0.6721,0.1882 0.1881,0.081 0.1881,0.2419 0,0.1613 -0.215,0.2419 -0.2151,0.1076 -0.5645,0.1076 -0.9946,0 -1.6129,-0.081 -0.6989,-0.054 -1.1827,-0.054 -0.5377,0 -1.2366,0.054 -0.6451,0.081 -1.6397,0.081 -0.3494,0 -0.5645,-0.1076 -0.215,-0.081 -0.215,-0.2419 0,-0.1613 0.1881,-0.2419 0.1882,-0.1075 0.6721,-0.1882 1.8547,-0.3494 1.8547,-1.9623 v -5.2418 -0.1344 q 0,-0.1075 -0.027,-0.1881 -0.027,-0.081 -0.1076,-0.081 h -10.2685 q -0.081,0 -0.1075,0.081 -0.027,0.081 -0.027,0.215 v 5.1074 q 0,0.8333 0.5914,1.4516 0.6183,0.5913 1.5591,0.7526 0.4839,0.081 0.672,0.1882 0.1882,0.081 0.1882,0.2419 0,0.1613 -0.2151,0.2419 -0.215,0.1076 -0.5645,0.1076 -0.9945,0 -1.7203,-0.081 -0.8602,-0.054 -1.4247,-0.054 -0.5376,0 -1.2903,0.054 -0.6451,0.081 -1.6666,0.081 z"
         style="stroke-width:0.67202169;fill:#333333"
         id="path844"
         inkscape:connector-curvature="0" />
      <path
         d="m -2324.0105,1500.4779 q -1.4785,0 -2.715,-0.6989 -1.2096,-0.6989 -1.9354,-1.9354 -0.6989,-1.2366 -0.6989,-2.7688 0,-1.4784 0.7795,-2.9031 0.8065,-1.4247 2.1505,-2.3117 1.3709,-0.8871 2.9569,-0.8871 1.5322,0 2.7956,0.7526 1.2634,0.7258 1.9892,1.9892 0.7527,1.2366 0.7527,2.6612 0,1.6129 -0.6989,3.0107 -0.699,1.3978 -2.0699,2.258 -1.3709,0.8333 -3.3063,0.8333 z m 0.5645,-0.8064 q 2.016,0 2.7687,-1.4785 0.5376,-1.0483 0.5376,-3.1719 0,-1.2903 -0.4838,-2.4999 -0.4839,-1.2097 -1.3441,-1.9623 -0.8602,-0.7527 -1.9623,-0.7527 -0.7795,0 -1.344,0.2419 -0.5645,0.2419 -1.0215,0.8333 -0.4839,0.6183 -0.672,1.5322 -0.1882,0.8871 -0.1882,2.043 0,1.344 0.4839,2.5537 0.4838,1.1827 1.3171,1.9354 0.8602,0.7258 1.9086,0.7258 z"
         style="stroke-width:0.67202169;fill:#333333"
         id="path846"
         inkscape:connector-curvature="0" />
      <path
         d="m -2307.1793,1500.6123 q -0.1882,0 -0.1882,-0.215 l 0.054,-0.7258 q 0.081,-0.5376 0.081,-0.9409 v -0.1612 q -1.0215,1.0214 -2.0967,1.4784 -1.0752,0.4301 -2.3386,0.4301 -1.3709,0 -2.2311,-0.8333 -0.8333,-0.8333 -0.8333,-2.3655 v -5.4568 q 0,-0.5914 -0.2689,-0.9409 -0.2688,-0.3494 -0.887,-0.5914 -0.3495,-0.1075 -0.3495,-0.43 0,-0.3764 0.4032,-0.4301 0.8333,-0.054 1.3172,-0.1344 0.4839,-0.081 1.344,-0.2957 l 0.2151,-0.027 q 0.2957,0 0.2688,0.3763 -0.1613,1.2365 -0.1613,2.0698 v 5.2418 q 0,0.9677 0.6989,1.7204 0.6989,0.7258 1.5591,0.7258 0.8064,0 1.2903,-0.081 0.5107,-0.1075 0.9677,-0.4569 0.4839,-0.3495 0.8333,-0.8065 0.3763,-0.4838 0.3763,-1.2096 v -4.9192 q 0,-0.7258 -0.6182,-1.0215 -0.5914,-0.3226 -1.1828,-0.3226 -0.5645,0 -0.5645,-0.4569 0,-0.4032 0.5645,-0.4032 1.1559,-0.027 1.8279,-0.1076 0.6989,-0.1075 1.4785,-0.3225 0.1613,-0.054 0.2688,-0.054 0.1344,0 0.2419,0.081 0.1075,0.081 0.1075,0.2151 l -0.054,0.2419 q -0.054,0.2957 -0.1344,0.8602 -0.054,0.5376 -0.054,0.9946 v 6.2095 q 0,1.344 0.4839,1.344 l 0.6182,-0.054 0.6183,-0.027 q 0.4032,0 0.4032,0.3494 0,0.2151 -0.1075,0.2957 -0.081,0.054 -0.2688,0.081 -0.914,0.1344 -1.6129,0.3494 -0.6989,0.2151 -1.5322,0.5645 -0.3226,0.1613 -0.5376,0.1613 z"
         style="stroke-width:0.67202169;fill:#333333"
         id="path848"
         inkscape:connector-curvature="0" />
      <path
         d="m -2301.6595,1500.1822 q -0.5376,0 -0.5376,-0.2957 0,-0.1882 0.1344,-0.2419 0.1344,-0.081 0.4838,-0.1882 0.5645,-0.1344 0.8602,-0.3225 0.2957,-0.2151 0.2957,-0.699 v -5.7793 q 0,-0.8602 -0.1881,-1.3172 -0.1882,-0.457 -0.8065,-0.6183 -0.2688,-0.081 -0.2688,-0.3494 0,-0.2957 0.2419,-0.3226 0.8334,-0.215 1.3979,-0.5376 0.5913,-0.3226 1.2902,-0.8333 0.1882,-0.1344 0.2957,-0.1344 0.1344,0 0.1344,0.1882 l -0.054,0.5645 q -0.027,0.215 -0.054,0.5376 -0.027,0.2957 -0.027,0.6182 0,0.2688 0.054,0.3226 0.9677,-0.9139 2.0161,-1.344 1.0483,-0.457 2.3117,-0.457 1.2903,0 2.1505,1.0752 0.887,1.0753 0.887,2.6612 v 5.7256 q 0,0.4839 0.2689,0.6721 0.2956,0.1613 0.887,0.3494 0.3226,0.1075 0.457,0.2151 0.1613,0.081 0.1613,0.2688 0,0.2419 -0.5376,0.2419 -0.7258,0 -1.1559,-0.081 -0.5376,-0.054 -0.9946,-0.054 -0.4301,0 -1.0215,0.054 -0.4301,0.081 -1.1827,0.081 -0.5377,0 -0.5377,-0.2419 0,-0.1882 0.1345,-0.2688 0.1612,-0.1076 0.4838,-0.2151 0.5914,-0.1881 0.8602,-0.3494 0.2957,-0.1882 0.2957,-0.6721 v -5.6449 q 0,-1.1559 -0.672,-1.8279 -0.6452,-0.6721 -1.7473,-0.6989 -1.6666,0 -2.9838,1.0752 -0.215,0.215 -0.215,0.6183 v 6.4782 q 0,0.4839 0.2957,0.699 0.2957,0.1881 0.8602,0.3225 0.3225,0.081 0.4569,0.1882 0.1613,0.081 0.1613,0.2419 0,0.2957 -0.5376,0.2957 -0.6989,0 -1.1559,-0.081 -0.5914,-0.054 -1.0214,-0.054 -0.4301,0 -1.0215,0.054 -0.4301,0.081 -1.1559,0.081 z"
         style="stroke-width:0.67202169;fill:#333333"
         id="path850"
         inkscape:connector-curvature="0" />
      <path
         d="m -2279.0703,1500.6123 q -0.054,0 -0.1882,-0.1075 -0.1075,-0.1075 -0.1075,-0.1613 l 0.054,-0.6989 q 0.081,-0.4839 0.081,-0.914 v -0.1612 q -0.4839,0.7526 -1.3978,1.344 -0.914,0.5645 -2.1236,0.5645 -1.4785,0 -2.6075,-0.7796 -1.129,-0.7795 -1.7472,-2.0429 -0.6183,-1.2903 -0.6183,-2.6612 0,-1.586 0.7258,-2.9569 0.7527,-1.3978 2.1236,-2.2311 1.3709,-0.8333 3.1988,-0.8333 0.5108,0 1.0484,0.1075 0.5376,0.081 0.887,0.1882 0.242,0.081 0.3495,0.081 0.081,0 0.1344,-0.1613 0.054,-0.1613 0.054,-0.4838 v -3.8171 q 0,-1.0215 -0.3226,-1.4247 -0.3226,-0.4032 -1.0215,-0.5376 -0.2419,-0.054 -0.2419,-0.3495 0,-0.2419 0.215,-0.3225 1.4247,-0.3495 2.1236,-0.6452 0.6989,-0.3225 0.7796,-0.3494 0.215,-0.081 0.3494,-0.081 0.1613,0 0.1882,0.1613 0,0.1613 -0.1075,1.0215 -0.081,0.8602 -0.081,2.6343 v 12.1502 q 0,0.9408 0.1344,1.344 0.1344,0.4032 0.4301,0.4032 0.457,0 1.1559,-0.081 h 0.1344 q 0.3495,0 0.3495,0.2419 0,0.1882 -0.1345,0.3495 -0.1075,0.1344 -0.2419,0.1344 -1.4515,0.1881 -3.145,0.9139 -0.2957,0.1613 -0.4301,0.1613 z m -2.715,-1.5322 q 0.6989,0 1.3709,-0.3495 0.672,-0.3763 1.1828,-0.9677 l 0.027,-4.8385 q 0,-0.7258 -0.4301,-1.4247 -0.4032,-0.6989 -1.1828,-1.129 -0.7527,-0.457 -1.6935,-0.457 -0.7258,0 -1.4784,0.4032 -0.7527,0.4032 -1.2903,1.3978 -0.5376,0.9946 -0.5376,2.6612 0,1.8548 0.6989,2.9032 0.6989,1.0483 1.6128,1.4247 0.914,0.3763 1.7204,0.3763 z"
         style="stroke-width:0.67202169;fill:#333333"
         id="path852"
         inkscape:connector-curvature="0" />
    </g>
  </g>
</svg>
